<svg id="visual" viewBox="0 0 900 600" width="900" height="600" xmlns="http://www.w3.org/2000/svg" xmlns:xlink="http://www.w3.org/1999/xlink" version="1.1"><rect x="0" y="0" width="900" height="600" fill="#001220"></rect><defs><linearGradient id="grad1_0" x1="33.3%" y1="0%" x2="100%" y2="100%"><stop offset="20%" stop-color="#fbae3c" stop-opacity="1"></stop><stop offset="80%" stop-color="#fbae3c" stop-opacity="1"></stop></linearGradient></defs><defs><linearGradient id="grad1_1" x1="33.3%" y1="0%" x2="100%" y2="100%"><stop offset="20%" stop-color="#fbae3c" stop-opacity="1"></stop><stop offset="80%" stop-color="#f17c53" stop-opacity="1"></stop></linearGradient></defs><defs><linearGradient id="grad1_2" x1="33.3%" y1="0%" x2="100%" y2="100%"><stop offset="20%" stop-color="#cc5867" stop-opacity="1"></stop><stop offset="80%" stop-color="#f17c53" stop-opacity="1"></stop></linearGradient></defs><defs><linearGradient id="grad1_3" x1="33.3%" y1="0%" x2="100%" y2="100%"><stop offset="20%" stop-color="#cc5867" stop-opacity="1"></stop><stop offset="80%" stop-color="#96446e" stop-opacity="1"></stop></linearGradient></defs><defs><linearGradient id="grad1_4" x1="33.3%" y1="0%" x2="100%" y2="100%"><stop offset="20%" stop-color="#593762" stop-opacity="1"></stop><stop offset="80%" stop-color="#96446e" stop-opacity="1"></stop></linearGradient></defs><defs><linearGradient id="grad1_5" x1="33.3%" y1="0%" x2="100%" y2="100%"><stop offset="20%" stop-color="#593762" stop-opacity="1"></stop><stop offset="80%" stop-color="#232745" stop-opacity="1"></stop></linearGradient></defs><defs><linearGradient id="grad1_6" x1="33.3%" y1="0%" x2="100%" y2="100%"><stop offset="20%" stop-color="#001220" stop-opacity="1"></stop><stop offset="80%" stop-color="#232745" stop-opacity="1"></stop></linearGradient></defs><defs><linearGradient id="grad2_0" x1="0%" y1="0%" x2="66.7%" y2="100%"><stop offset="20%" stop-color="#fbae3c" stop-opacity="1"></stop><stop offset="80%" stop-color="#fbae3c" stop-opacity="1"></stop></linearGradient></defs><defs><linearGradient id="grad2_1" x1="0%" y1="0%" x2="66.7%" y2="100%"><stop offset="20%" stop-color="#f17c53" stop-opacity="1"></stop><stop offset="80%" stop-color="#fbae3c" stop-opacity="1"></stop></linearGradient></defs><defs><linearGradient id="grad2_2" x1="0%" y1="0%" x2="66.7%" y2="100%"><stop offset="20%" stop-color="#f17c53" stop-opacity="1"></stop><stop offset="80%" stop-color="#cc5867" stop-opacity="1"></stop></linearGradient></defs><defs><linearGradient id="grad2_3" x1="0%" y1="0%" x2="66.7%" y2="100%"><stop offset="20%" stop-color="#96446e" stop-opacity="1"></stop><stop offset="80%" stop-color="#cc5867" stop-opacity="1"></stop></linearGradient></defs><defs><linearGradient id="grad2_4" x1="0%" y1="0%" x2="66.7%" y2="100%"><stop offset="20%" stop-color="#96446e" stop-opacity="1"></stop><stop offset="80%" stop-color="#593762" stop-opacity="1"></stop></linearGradient></defs><defs><linearGradient id="grad2_5" x1="0%" y1="0%" x2="66.7%" y2="100%"><stop offset="20%" stop-color="#232745" stop-opacity="1"></stop><stop offset="80%" stop-color="#593762" stop-opacity="1"></stop></linearGradient></defs><defs><linearGradient id="grad2_6" x1="0%" y1="0%" x2="66.7%" y2="100%"><stop offset="20%" stop-color="#232745" stop-opacity="1"></stop><stop offset="80%" stop-color="#001220" stop-opacity="1"></stop></linearGradient></defs><g transform="translate(900, 0)"><path d="M0 486.7C-45.2 437 -90.3 387.2 -153.8 371.4C-217.4 355.6 -299.2 373.8 -344.2 344.2C-389.1 314.6 -397.2 237.2 -414.8 171.8C-432.4 106.5 -459.6 53.2 -486.7 0L0 0Z" fill="#0f1d33"></path><path d="M0 417.2C-38.7 374.5 -77.4 331.9 -131.9 318.3C-186.3 304.8 -256.5 320.4 -295 295C-333.6 269.6 -340.5 203.3 -355.6 147.3C-370.7 91.3 -393.9 45.6 -417.2 0L0 0Z" fill="#3d3056"></path><path d="M0 347.7C-32.3 312.1 -64.5 276.6 -109.9 265.3C-155.3 254 -213.7 267 -245.8 245.8C-278 224.7 -283.7 169.4 -296.3 122.7C-308.9 76.1 -328.3 38 -347.7 0L0 0Z" fill="#773d6b"></path><path d="M0 278.1C-25.8 249.7 -51.6 221.3 -87.9 212.2C-124.2 203.2 -171 213.6 -196.7 196.7C-222.4 179.8 -227 135.5 -237 98.2C-247.1 60.9 -262.6 30.4 -278.1 0L0 0Z" fill="#b34c6d"></path><path d="M0 208.6C-19.4 187.3 -38.7 165.9 -65.9 159.2C-93.2 152.4 -128.2 160.2 -147.5 147.5C-166.8 134.8 -170.2 101.6 -177.8 73.6C-185.3 45.6 -197 22.8 -208.6 0L0 0Z" fill="#e1685e"></path><path d="M0 139.1C-12.9 124.8 -25.8 110.6 -44 106.1C-62.1 101.6 -85.5 106.8 -98.3 98.3C-111.2 89.9 -113.5 67.8 -118.5 49.1C-123.6 30.4 -131.3 15.2 -139.1 0L0 0Z" fill="#f99447"></path><path d="M0 69.5C-6.5 62.4 -12.9 55.3 -22 53.1C-31.1 50.8 -42.7 53.4 -49.2 49.2C-55.6 44.9 -56.7 33.9 -59.3 24.5C-61.8 15.2 -65.7 7.6 -69.5 0L0 0Z" fill="#fbae3c"></path></g><g transform="translate(0, 600)"><path d="M0 -486.7C57.7 -470.4 115.3 -454.1 180.2 -435.1C245.2 -416.2 317.4 -394.5 344.2 -344.2C371 -293.9 352.4 -214.8 368.6 -152.7C384.8 -90.5 435.8 -45.3 486.7 0L0 0Z" fill="#0f1d33"></path><path d="M0 -417.2C49.4 -403.2 98.8 -389.3 154.5 -373C210.1 -356.7 272 -338.2 295 -295C318 -251.9 302.1 -184.1 316 -130.9C329.9 -77.6 373.5 -38.8 417.2 0L0 0Z" fill="#3d3056"></path><path d="M0 -347.7C41.2 -336 82.4 -324.4 128.7 -310.8C175.1 -297.3 226.7 -281.8 245.8 -245.8C265 -209.9 251.7 -153.5 263.3 -109.1C274.9 -64.7 311.3 -32.3 347.7 0L0 0Z" fill="#773d6b"></path><path d="M0 -278.1C32.9 -268.8 65.9 -259.5 103 -248.7C140.1 -237.8 181.4 -225.4 196.7 -196.7C212 -167.9 201.4 -122.8 210.6 -87.3C219.9 -51.7 249 -25.9 278.1 0L0 0Z" fill="#b34c6d"></path><path d="M0 -208.6C24.7 -201.6 49.4 -194.6 77.2 -186.5C105.1 -178.4 136 -169.1 147.5 -147.5C159 -125.9 151 -92.1 158 -65.4C164.9 -38.8 186.8 -19.4 208.6 0L0 0Z" fill="#e1685e"></path><path d="M0 -139.1C16.5 -134.4 32.9 -129.8 51.5 -124.3C70 -118.9 90.7 -112.7 98.3 -98.3C106 -84 100.7 -61.4 105.3 -43.6C110 -25.9 124.5 -12.9 139.1 0L0 0Z" fill="#f99447"></path><path d="M0 -69.5C8.2 -67.2 16.5 -64.9 25.7 -62.2C35 -59.5 45.3 -56.4 49.2 -49.2C53 -42 50.3 -30.7 52.7 -21.8C55 -12.9 62.3 -6.5 69.5 0L0 0Z" fill="#fbae3c"></path></g></svg>