<?xml version="1.0" encoding="UTF-8"?>
<svg version="1.1" xmlns="http://www.w3.org/2000/svg" width="114" height="114">
<path d="M0 0 C3.23179825 0.05564458 6.46317254 0.08392733 9.6953125 0.11206055 C11.76305039 0.1474849 13.83076118 0.18453658 15.8984375 0.22338867 C16.85789276 0.22775436 17.81734802 0.23212006 18.80587769 0.23661804 C24.60492272 0.38417652 27.90349886 1.04933919 32.34375 4.86791992 C36.04646267 9.97510981 36.46887768 14.23026359 36.48901367 20.43725586 C36.49237228 21.08823242 36.4957309 21.73920898 36.49919128 22.40991211 C36.50867243 24.5573926 36.51064321 26.70479482 36.51171875 28.85229492 C36.51493418 30.35199007 36.51829847 31.8516849 36.52180481 33.35137939 C36.52778962 36.49524665 36.52964546 39.63908644 36.52905273 42.78295898 C36.52895135 46.79531945 36.54258176 50.80750201 36.55982494 54.8198204 C36.57099138 57.91864822 36.57297049 61.01743373 36.57244301 64.1162796 C36.57361697 65.59453187 36.57800569 67.07278545 36.58577538 68.55101776 C36.67320851 86.90978828 36.67320851 86.90978828 32.72265625 91.92651367 C32.12324219 92.38155273 31.52382812 92.8365918 30.90625 93.30541992 C30.01099609 94.01504883 30.01099609 94.01504883 29.09765625 94.73901367 C25.81201953 96.85382216 22.97173576 97.00111868 19.1730957 97.02905273 C18.11802322 97.03866028 17.06295074 97.04826782 15.97590637 97.0581665 C14.26500069 97.06454132 14.26500069 97.06454132 12.51953125 97.07104492 C11.34416306 97.076745 10.16879486 97.08244507 8.95780945 97.08831787 C6.4670807 97.09777172 3.97633942 97.10430338 1.4855957 97.1081543 C-2.31125986 97.11783707 -6.10756891 97.14884835 -9.90429688 97.18041992 C-12.32551762 97.18695236 -14.74674224 97.19220189 -17.16796875 97.19604492 C-18.29845139 97.20839172 -19.42893402 97.22073853 -20.59367371 97.23345947 C-26.99188149 97.21552797 -31.88259407 96.71566043 -37.65625 93.86791992 C-42.25019253 88.33163021 -42.77704048 84.03689065 -42.83325195 77.02319336 C-42.83982315 76.34295609 -42.84639435 75.66271881 -42.85316467 74.96186829 C-42.87282855 72.71700923 -42.88454534 70.47221689 -42.89453125 68.22729492 C-42.89860678 67.45763649 -42.9026823 66.68797806 -42.90688133 65.89499664 C-42.92771358 61.82038138 -42.94202703 57.74579951 -42.95141602 53.67114258 C-42.96246894 49.47701296 -42.99686363 45.28341554 -43.03658772 41.08947372 C-43.06281609 37.85167499 -43.07111337 34.61400187 -43.07469749 31.37610626 C-43.07954814 29.8308376 -43.09111851 28.28557398 -43.10973549 26.74040985 C-43.27980456 11.68849771 -43.27980456 11.68849771 -38.65625 4.86791992 C-30.01953411 -3.55287807 -11.15172697 -0.20926571 0 0 Z M-19.65625 14.86791992 C-19.65625 18.16791992 -19.65625 21.46791992 -19.65625 24.86791992 C-19.32625 24.86791992 -18.99625 24.86791992 -18.65625 24.86791992 C-18.65625 21.56791992 -18.65625 18.26791992 -18.65625 14.86791992 C-18.98625 14.86791992 -19.31625 14.86791992 -19.65625 14.86791992 Z M12.34375 16.86791992 C12.34375 19.50791992 12.34375 22.14791992 12.34375 24.86791992 C13.00375 24.86791992 13.66375 24.86791992 14.34375 24.86791992 C14.34375 22.22791992 14.34375 19.58791992 14.34375 16.86791992 C13.68375 16.86791992 13.02375 16.86791992 12.34375 16.86791992 Z M5.34375 18.86791992 C5.34375 20.84791992 5.34375 22.82791992 5.34375 24.86791992 C5.67375 24.86791992 6.00375 24.86791992 6.34375 24.86791992 C6.34375 22.88791992 6.34375 20.90791992 6.34375 18.86791992 C6.01375 18.86791992 5.68375 18.86791992 5.34375 18.86791992 Z M-12.65625 19.86791992 C-12.65625 21.51791992 -12.65625 23.16791992 -12.65625 24.86791992 C-11.99625 24.86791992 -11.33625 24.86791992 -10.65625 24.86791992 C-10.98625 23.21791992 -11.31625 21.56791992 -11.65625 19.86791992 C-11.98625 19.86791992 -12.31625 19.86791992 -12.65625 19.86791992 Z M-27.65625 22.86791992 C-26.65625 25.86791992 -26.65625 25.86791992 -26.65625 25.86791992 Z M-2.65625 22.86791992 C-2.65625 23.52791992 -2.65625 24.18791992 -2.65625 24.86791992 C-1.99625 24.86791992 -1.33625 24.86791992 -0.65625 24.86791992 C-0.65625 24.20791992 -0.65625 23.54791992 -0.65625 22.86791992 C-1.31625 22.86791992 -1.97625 22.86791992 -2.65625 22.86791992 Z M18.34375 69.86791992 C18.34375 72.83791992 18.34375 75.80791992 18.34375 78.86791992 C18.67375 78.86791992 19.00375 78.86791992 19.34375 78.86791992 C19.34375 75.89791992 19.34375 72.92791992 19.34375 69.86791992 C19.01375 69.86791992 18.68375 69.86791992 18.34375 69.86791992 Z M-28.65625 79.86791992 C-28.65625 80.52791992 -28.65625 81.18791992 -28.65625 81.86791992 C-27.99625 81.53791992 -27.33625 81.20791992 -26.65625 80.86791992 C-27.31625 80.53791992 -27.97625 80.20791992 -28.65625 79.86791992 Z M-1.65625 79.86791992 C-1.65625 80.19791992 -1.65625 80.52791992 -1.65625 80.86791992 C-0.00625 80.86791992 1.64375 80.86791992 3.34375 80.86791992 C3.34375 80.53791992 3.34375 80.20791992 3.34375 79.86791992 C1.69375 79.86791992 0.04375 79.86791992 -1.65625 79.86791992 Z " fill="#0E181F" transform="translate(57.65625,5.132080078125)"/>
<path d="M0 0 C7.58038432 -0.12690954 15.16049408 -0.21439808 22.74169922 -0.2746582 C25.31992837 -0.2997824 27.89808643 -0.33388759 30.47607422 -0.37719727 C34.18474886 -0.43793664 37.89248075 -0.46623197 41.6015625 -0.48828125 C42.75177887 -0.51408768 43.90199524 -0.5398941 45.08706665 -0.56648254 C54.0347828 -0.56960945 54.0347828 -0.56960945 57.73168945 2.14892578 C60.36534429 5.45920683 60.74049208 6.92290683 60.69140625 11.10546875 C60.68270508 12.82733398 60.68270508 12.82733398 60.67382812 14.58398438 C60.63708984 15.77314453 60.60035156 16.96230469 60.5625 18.1875 C60.56056641 19.38826172 60.55863281 20.58902344 60.55664062 21.82617188 C60.45757387 28.33889394 60.45757387 28.33889394 60 31 C56.56757239 33.28828507 55.32672709 33.2484903 51.29101562 33.24291992 C50.11970093 33.24599655 48.94838623 33.24907318 47.74157715 33.25224304 C46.47591919 33.24505753 45.21026123 33.23787201 43.90625 33.23046875 C42.60804321 33.23001053 41.30983643 33.22955231 39.97229004 33.2290802 C37.22512457 33.22751663 34.47808966 33.21923704 31.73095703 33.20581055 C28.21023291 33.18882089 24.68965222 33.18499631 21.16889191 33.18575573 C17.81049207 33.18541836 14.45213924 33.17657914 11.09375 33.16796875 C9.82809204 33.16685593 8.56243408 33.1657431 7.25842285 33.16459656 C6.08710815 33.15821671 4.91579346 33.15183685 3.70898438 33.14526367 C2.67656616 33.14145187 1.64414795 33.13764008 0.58044434 33.13371277 C-2 33 -2 33 -5 32 C-5 23.75 -5 15.5 -5 7 C-4.34 7.66 -3.68 8.32 -3 9 C-2.44716339 8.34969315 -1.89432678 7.69938629 -1.32473755 7.02937317 C1.45618608 4.60177363 2.56638796 4.50660322 6.19580078 4.5300293 C7.23012238 4.52710373 8.26444397 4.52417816 9.33010864 4.52116394 C10.44062592 4.53867203 11.55114319 4.55618011 12.6953125 4.57421875 C13.8391037 4.57750687 14.9828949 4.58079498 16.16134644 4.58418274 C18.57718602 4.59460179 20.99300057 4.6145485 23.40869141 4.64331055 C27.11765194 4.68741263 30.8259659 4.70474926 34.53515625 4.71679688 C36.88021773 4.73021948 39.2252712 4.74514204 41.5703125 4.76171875 C42.68487823 4.76910568 43.79944397 4.77649261 44.94778442 4.78410339 C46.48981033 4.80335625 46.48981033 4.80335625 48.06298828 4.82299805 C48.97025665 4.83284225 49.87752502 4.84268646 50.81228638 4.85282898 C53 5 53 5 55 6 C53.28039517 3.84364177 52.39009862 3.06555118 49.62715149 2.60127258 C48.69227402 2.59016953 47.75739655 2.57906647 46.79418945 2.56762695 C45.20287956 2.53793571 45.20287956 2.53793571 43.579422 2.50764465 C42.43559555 2.50125473 41.2917691 2.49486481 40.11328125 2.48828125 C38.94113571 2.47033005 37.76899017 2.45237885 36.56132507 2.43388367 C32.81175349 2.37963346 29.06231026 2.34583698 25.3125 2.3125 C22.77276854 2.27934001 20.23305405 2.2448516 17.69335938 2.20898438 C11.46235468 2.12389846 5.23133367 2.05561091 -1 2 C-0.67 1.34 -0.34 0.68 0 0 Z M10 9 C10 12.3 10 15.6 10 19 C10.33 19 10.66 19 11 19 C11 15.7 11 12.4 11 9 C10.67 9 10.34 9 10 9 Z M42 11 C42 13.64 42 16.28 42 19 C42.66 19 43.32 19 44 19 C44 16.36 44 13.72 44 11 C43.34 11 42.68 11 42 11 Z M35 13 C35 14.98 35 16.96 35 19 C35.33 19 35.66 19 36 19 C36 17.02 36 15.04 36 13 C35.67 13 35.34 13 35 13 Z M17 14 C17 15.65 17 17.3 17 19 C17.66 19 18.32 19 19 19 C18.67 17.35 18.34 15.7 18 14 C17.67 14 17.34 14 17 14 Z M2 17 C3 20 3 20 3 20 Z M27 17 C27 17.66 27 18.32 27 19 C27.66 19 28.32 19 29 19 C29 18.34 29 17.68 29 17 C28.34 17 27.68 17 27 17 Z " fill="#42535E" transform="translate(28,11)"/>
<path d="M0 0 C3.23179825 0.05564458 6.46317254 0.08392733 9.6953125 0.11206055 C11.76305039 0.1474849 13.83076118 0.18453658 15.8984375 0.22338867 C16.85789276 0.22775436 17.81734802 0.23212006 18.80587769 0.23661804 C24.60492272 0.38417652 27.90349886 1.04933919 32.34375 4.86791992 C35.98880948 9.89558817 36.47022944 14.05427853 36.44140625 20.16479492 C36.43657227 21.97270508 36.43657227 21.97270508 36.43164062 23.81713867 C36.41907227 25.69852539 36.41907227 25.69852539 36.40625 27.61791992 C36.40173828 28.88764648 36.39722656 30.15737305 36.39257812 31.46557617 C36.38079556 34.59973829 36.36434416 37.73380533 36.34375 40.86791992 C36.01375 40.20791992 35.68375 39.54791992 35.34375 38.86791992 C33.69375 39.19791992 32.04375 39.52791992 30.34375 39.86791992 C30.33964111 39.01037109 30.33553223 38.15282227 30.33129883 37.26928711 C30.30428031 34.07807551 30.25515722 30.88817747 30.19116211 27.69750977 C30.16800961 26.31839796 30.15359274 24.93911002 30.14819336 23.55981445 C30.13888583 21.57373097 30.09523515 19.58790266 30.05078125 17.60229492 C30.0350708 16.40830078 30.01936035 15.21430664 30.00317383 13.98413086 C29.55512804 10.81210145 29.55512804 10.81210145 27.58911133 8.47363281 C22.4359151 5.92397724 17.37916487 6.35872382 11.7109375 6.44213867 C10.48214874 6.44542679 9.25335999 6.4487149 7.98733521 6.45210266 C5.3933583 6.46251598 2.79940458 6.48245292 0.20556641 6.51123047 C-3.77324159 6.55533116 -7.75144651 6.57267107 -11.73046875 6.5847168 C-14.25000874 6.5981398 -16.76954128 6.61306247 -19.2890625 6.62963867 C-20.48282501 6.6370256 -21.67658752 6.64441254 -22.90652466 6.65202332 C-24.56372025 6.67127617 -24.56372025 6.67127617 -26.25439453 6.69091797 C-27.22748566 6.70076218 -28.20057678 6.71060638 -29.20315552 6.7207489 C-31.79378464 6.7699609 -31.79378464 6.7699609 -34.65625 7.86791992 C-35.7569576 11.17004272 -35.86252072 13.80875271 -35.97265625 17.28588867 C-36.01455078 18.53950195 -36.05644531 19.79311523 -36.09960938 21.0847168 C-36.13892578 22.39504883 -36.17824219 23.70538086 -36.21875 25.05541992 C-36.26195992 26.39071971 -36.305575 27.72600645 -36.34960938 29.0612793 C-36.45581502 32.33005289 -36.55785997 35.59890325 -36.65625 38.86791992 C-39.65625 38.86791992 -39.65625 38.86791992 -41.65625 37.86791992 C-41.65625 39.18791992 -41.65625 40.50791992 -41.65625 41.86791992 C-41.016875 42.17729492 -40.3775 42.48666992 -39.71875 42.80541992 C-37.65625 43.86791992 -37.65625 43.86791992 -36.65625 44.86791992 C-36.53295672 47.84928885 -36.47008435 50.81105042 -36.4453125 53.79370117 C-36.41723952 55.64071518 -36.38857502 57.48772027 -36.359375 59.3347168 C-36.31811821 62.25780957 -36.28124714 65.18073674 -36.25488281 68.10400391 C-36.22728231 70.91759 -36.1814039 73.73040982 -36.1328125 76.54370117 C-36.12955963 77.41674393 -36.12630676 78.28978668 -36.12295532 79.18928528 C-36.10638885 80.00660629 -36.08982239 80.82392731 -36.07275391 81.66601562 C-36.06466705 82.38247757 -36.0565802 83.09893951 -36.04824829 83.83711243 C-35.51630865 86.59290763 -34.67152059 87.91266526 -32.65625 89.86791992 C-30.05053841 90.47484929 -30.05053841 90.47484929 -27.05493164 90.38549805 C-25.90686539 90.39810669 -24.75879913 90.41071533 -23.57594299 90.42370605 C-22.33529587 90.41560913 -21.09464874 90.40751221 -19.81640625 90.39916992 C-18.54276718 90.40299683 -17.26912811 90.40682373 -15.95689392 90.4107666 C-13.2605069 90.41349149 -10.56556557 90.40809872 -7.86938477 90.3894043 C-4.41786663 90.36663609 -0.96759409 90.37972123 2.48387814 90.40369415 C5.77966095 90.4216494 9.07529466 90.40906538 12.37109375 90.39916992 C13.60971664 90.40726685 14.84833954 90.41536377 16.12449646 90.42370605 C17.85132408 90.40479309 17.85132408 90.40479309 19.61303711 90.38549805 C21.13168617 90.38072449 21.13168617 90.38072449 22.68101501 90.37585449 C26.09318951 89.7249593 27.2757962 88.62229331 29.34375 85.86791992 C29.92874702 83.84860658 29.92874702 83.84860658 29.84204102 81.69775391 C29.85207657 80.88688828 29.86211212 80.07602264 29.87245178 79.24058533 C29.86426926 78.37381668 29.85608673 77.50704803 29.84765625 76.61401367 C29.85707748 75.71675064 29.86649872 74.81948761 29.87620544 73.89503479 C29.90486769 71.03159695 29.90793261 68.16898972 29.90625 65.30541992 C29.90985329 62.43840112 29.91932825 59.57198558 29.94700623 56.70509338 C29.96384305 54.92224289 29.96663244 53.13919318 29.95399475 51.35630798 C29.96087814 50.54859451 29.96776154 49.74088104 29.97485352 48.90869141 C29.97389175 48.19905746 29.97292999 47.48942352 29.97193909 46.75828552 C30.46045796 44.27455187 31.33663551 43.37219318 33.34375 41.86791992 C34.33375 41.86791992 35.32375 41.86791992 36.34375 41.86791992 C36.39344113 47.41803708 36.42960685 52.96802275 36.45361328 58.51831055 C36.46362847 60.40375018 36.47724452 62.28917446 36.49462891 64.17456055 C36.51907532 66.89530241 36.53027816 69.61583769 36.5390625 72.33666992 C36.54938507 73.17033081 36.55970764 74.0039917 36.57034302 74.86291504 C36.57144688 80.71041645 36.47805259 87.15761278 32.72265625 91.92651367 C32.12324219 92.38155273 31.52382812 92.8365918 30.90625 93.30541992 C30.01099609 94.01504883 30.01099609 94.01504883 29.09765625 94.73901367 C25.81201953 96.85382216 22.97173576 97.00111868 19.1730957 97.02905273 C18.11802322 97.03866028 17.06295074 97.04826782 15.97590637 97.0581665 C14.26500069 97.06454132 14.26500069 97.06454132 12.51953125 97.07104492 C11.34416306 97.076745 10.16879486 97.08244507 8.95780945 97.08831787 C6.4670807 97.09777172 3.97633942 97.10430338 1.4855957 97.1081543 C-2.31125986 97.11783707 -6.10756891 97.14884835 -9.90429688 97.18041992 C-12.32551762 97.18695236 -14.74674224 97.19220189 -17.16796875 97.19604492 C-18.29845139 97.20839172 -19.42893402 97.22073853 -20.59367371 97.23345947 C-26.99188149 97.21552797 -31.88259407 96.71566043 -37.65625 93.86791992 C-42.25019253 88.33163021 -42.77704048 84.03689065 -42.83325195 77.02319336 C-42.83982315 76.34295609 -42.84639435 75.66271881 -42.85316467 74.96186829 C-42.87282855 72.71700923 -42.88454534 70.47221689 -42.89453125 68.22729492 C-42.89860678 67.45763649 -42.9026823 66.68797806 -42.90688133 65.89499664 C-42.92771358 61.82038138 -42.94202703 57.74579951 -42.95141602 53.67114258 C-42.96246894 49.47701296 -42.99686363 45.28341554 -43.03658772 41.08947372 C-43.06281609 37.85167499 -43.07111337 34.61400187 -43.07469749 31.37610626 C-43.07954814 29.8308376 -43.09111851 28.28557398 -43.10973549 26.74040985 C-43.27980456 11.68849771 -43.27980456 11.68849771 -38.65625 4.86791992 C-30.01953411 -3.55287807 -11.15172697 -0.20926571 0 0 Z " fill="#E8EAEB" transform="translate(57.65625,5.132080078125)"/>
<path d="M0 0 C0.04969113 5.55011716 0.08585685 11.10010282 0.10986328 16.65039062 C0.11987847 18.53583026 0.13349452 20.42125453 0.15087891 22.30664062 C0.17532532 25.02738249 0.18652816 27.74791777 0.1953125 30.46875 C0.20563507 31.30241089 0.21595764 32.13607178 0.22659302 32.99499512 C0.22769688 38.84249653 0.13430259 45.28969285 -3.62109375 50.05859375 C-4.52021484 50.74115234 -4.52021484 50.74115234 -5.4375 51.4375 C-6.33275391 52.14712891 -6.33275391 52.14712891 -7.24609375 52.87109375 C-10.53173047 54.98590224 -13.37201424 55.13319876 -17.1706543 55.16113281 C-18.22572678 55.17074036 -19.28079926 55.1803479 -20.36784363 55.19024658 C-22.07874931 55.1966214 -22.07874931 55.1966214 -23.82421875 55.203125 C-24.99958694 55.20882507 -26.17495514 55.21452515 -27.38594055 55.22039795 C-29.8766693 55.2298518 -32.36741058 55.23638345 -34.8581543 55.24023438 C-38.65500986 55.24991714 -42.45131891 55.28092843 -46.24804688 55.3125 C-48.66926762 55.31903244 -51.09049224 55.32428196 -53.51171875 55.328125 C-54.64220139 55.3404718 -55.77268402 55.3528186 -56.93742371 55.36553955 C-63.33800747 55.34760139 -68.22251409 54.84304226 -74 52 C-76.5625 49.0625 -76.5625 49.0625 -78 46 C-77.58984375 43.80859375 -77.58984375 43.80859375 -77 42 C-76.60167969 42.55429688 -76.20335938 43.10859375 -75.79296875 43.6796875 C-75.26316406 44.40414062 -74.73335937 45.12859375 -74.1875 45.875 C-73.66542969 46.59429687 -73.14335938 47.31359375 -72.60546875 48.0546875 C-70.49358388 50.61361369 -68.85044567 51.90476445 -65.51325989 52.2784729 C-64.03100166 52.2984584 -64.03100166 52.2984584 -62.51879883 52.31884766 C-61.39786331 52.33871735 -60.2769278 52.35858704 -59.12202454 52.37905884 C-57.30785286 52.39638565 -57.30785286 52.39638565 -55.45703125 52.4140625 C-54.21829758 52.43342865 -52.9795639 52.4527948 -51.70329285 52.4727478 C-48.41374825 52.52243407 -45.12423875 52.56369282 -41.83453369 52.60089111 C-38.47617475 52.64093312 -35.11798594 52.69202451 -31.75976562 52.7421875 C-25.17328642 52.83832153 -18.58673317 52.92334848 -12 53 C-12 52.01 -12 51.02 -12 50 C-30.15 50 -48.3 50 -67 50 C-67 49.67 -67 49.34 -67 49 C-66.30731018 48.99635437 -65.61462036 48.99270874 -64.90093994 48.98895264 C-57.69826579 48.94717704 -50.4962318 48.87786568 -43.29394531 48.79248047 C-40.6051281 48.76201804 -37.91649902 48.74135434 -35.22753906 48.72900391 C-31.36479803 48.70762342 -27.50306552 48.66099493 -23.640625 48.609375 C-22.4363385 48.60814636 -21.232052 48.60691772 -19.99127197 48.60565186 C-18.30998199 48.57607391 -18.30998199 48.57607391 -16.59472656 48.54589844 C-15.60877502 48.53701599 -14.62282349 48.52813354 -13.60699463 48.51898193 C-10.2412298 47.84894943 -9.05065892 46.71537336 -7 44 C-6.41500298 41.98068666 -6.41500298 41.98068666 -6.50170898 39.82983398 C-6.49167343 39.01896835 -6.48163788 38.20810272 -6.47129822 37.37266541 C-6.47948074 36.50589676 -6.48766327 35.63912811 -6.49609375 34.74609375 C-6.48667252 33.84883072 -6.47725128 32.95156769 -6.46754456 32.02711487 C-6.43888231 29.16367703 -6.43581739 26.30106979 -6.4375 23.4375 C-6.43389671 20.5704812 -6.42442175 17.70406565 -6.39674377 14.83717346 C-6.37990695 13.05432297 -6.37711756 11.27127326 -6.38975525 9.48838806 C-6.38287186 8.68067459 -6.37598846 7.87296112 -6.36889648 7.04077148 C-6.36985825 6.33113754 -6.37082001 5.6215036 -6.37181091 4.8903656 C-5.61646622 1.05003288 -3.75622851 0 0 0 Z " fill="#A1B3BC" transform="translate(94,47)"/>
<path d="M0 0 C0.33 0 0.66 0 1 0 C1 8.58 1 17.16 1 26 C-2 26 -2 26 -4 25 C-4 26.32 -4 27.64 -4 29 C-3.360625 29.309375 -2.72125 29.61875 -2.0625 29.9375 C0 31 0 31 1 32 C1.09850654 34.96970499 1.13714195 37.92040234 1.140625 40.890625 C1.15895732 42.73308524 1.17852802 44.57553349 1.19921875 46.41796875 C1.22817166 49.33239836 1.24999934 52.24606185 1.25048828 55.16064453 C1.25382541 57.9671683 1.28839755 60.77191065 1.328125 63.578125 C1.3210553 64.44600647 1.3139856 65.31388794 1.30670166 66.20806885 C1.38703639 70.20755549 1.72945699 72.53185211 3.75952148 76.04467773 C8.82391917 79.10056269 13.71080386 78.7264355 19.51953125 78.70703125 C21.34009285 78.72971321 21.34009285 78.72971321 23.19743347 78.75285339 C27.0693103 78.79579896 30.94040851 78.80457572 34.8125 78.8125 C37.43947393 78.83563873 40.06642926 78.86100275 42.69335938 78.88867188 C49.12891358 78.95159245 55.56416267 78.986472 62 79 C62 79.99 62 80.98 62 82 C54.15316715 82.152397 46.30671725 82.25732043 38.45874023 82.32958984 C35.78973952 82.35633253 33.12267587 82.40062445 30.45385742 82.45263672 C26.61352149 82.52559523 22.77449736 82.55949297 18.93359375 82.5859375 C17.74479111 82.61690521 16.55598846 82.64787292 15.3311615 82.67977905 C8.92375554 82.68237022 4.92406661 82.29277163 0.27186584 77.68252563 C-1 76 -1 76 -2.05104065 73.86166382 C-2.85775291 71.82371751 -2.85775291 71.82371751 -5 71 C-5 55.49 -5 39.98 -5 24 C-3.68 24 -2.36 24 -1 24 C-0.67 16.08 -0.34 8.16 0 0 Z " fill="#D5DEE3" transform="translate(20,18)"/>
<path d="M0 0 C1.65 0 3.3 0 5 0 C5.33 1.32 5.66 2.64 6 4 C6.7425 3.938125 7.485 3.87625 8.25 3.8125 C11.45383006 4.03094296 12.64031256 4.90250005 15 7 C15.33 6.67 15.66 6.34 16 6 C17.99958364 5.95919217 20.00045254 5.95745644 22 6 C22.33 5.01 22.66 4.02 23 3 C24.11375 2.87625 25.2275 2.7525 26.375 2.625 C30.03103677 2.3534187 30.03103677 2.3534187 32 0 C35.29714793 0.32971479 36.6226839 0.6226839 39 3 C41.32548007 3.69356423 43.65880445 4.36149212 46 5 C47 6 47 6 47.09765625 8.94140625 C47.08605469 10.13636719 47.07445312 11.33132812 47.0625 12.5625 C47.05347656 13.76003906 47.04445312 14.95757812 47.03515625 16.19140625 C47.02355469 17.11824219 47.01195312 18.04507813 47 19 C46.34 19 45.68 19 45 19 C45 15.04 45 11.08 45 7 C43.68 7 42.36 7 41 7 C41.495 9.97 41.495 9.97 42 13 C39.69 13 37.38 13 35 13 C35 10.03 35 7.06 35 4 C34.34 4 33.68 4 33 4 C33 6.97 33 9.94 33 13 C28.66666667 13 24.33333333 13 20 13 C20 12.01 20 11.02 20 10 C19.34 10 18.68 10 18 10 C18 10.99 18 11.98 18 13 C15.36 13 12.72 13 10 13 C9.67 11.35 9.34 9.7 9 8 C8.67 9.65 8.34 11.3 8 13 C6.35 13 4.7 13 3 13 C2.92652344 11.96939453 2.92652344 11.96939453 2.8515625 10.91796875 C2.77679688 10.01691406 2.70203125 9.11585937 2.625 8.1875 C2.55539063 7.29417969 2.48578125 6.40085937 2.4140625 5.48046875 C2.13354964 2.75601501 2.13354964 2.75601501 0 0 Z " fill="#172027" transform="translate(37,18)"/>
<path d="M0 0 C0.33 0 0.66 0 1 0 C1 2.97 1 5.94 1 9 C-0.65 9 -2.3 9 -4 9 C-4.66 11.31 -5.32 13.62 -6 16 C-5.01 16 -4.02 16 -3 16 C-3.33 14.68 -3.66 13.36 -4 12 C-2.02 12 -0.04 12 2 12 C2 13.32 2 14.64 2 16 C2.99 16 3.98 16 5 16 C4.67 14.68 4.34 13.36 4 12 C5.98 12 7.96 12 10 12 C10 13.32 10 14.64 10 16 C10.66 16.33 11.32 16.66 12 17 C12 15.35 12 13.7 12 12 C14.64 12 17.28 12 20 12 C20 13.65 20 15.3 20 17 C20.66 16.67 21.32 16.34 22 16 C22 14.68 22 13.36 22 12 C23.98 12 25.96 12 28 12 C27.67 13.32 27.34 14.64 27 16 C27.99 16 28.98 16 30 16 C29.505 14.02 29.505 14.02 29 12 C30.98 12 32.96 12 35 12 C35 13.32 35 14.64 35 16 C35.66 16 36.32 16 37 16 C37 14.68 37 13.36 37 12 C38.98 12 40.96 12 43 12 C43 13.65 43 15.3 43 17 C44.65 17 46.3 17 48 17 C47.67 17.66 47.34 18.32 47 19 C39.18547248 19.02526563 31.37095542 19.04283105 23.55639648 19.05493164 C20.89558519 19.05997383 18.23477668 19.06680736 15.57397461 19.07543945 C11.75894484 19.08751009 7.94395156 19.09322929 4.12890625 19.09765625 C2.33206139 19.10539818 2.33206139 19.10539818 0.49891663 19.11329651 C-1.15268211 19.11340981 -1.15268211 19.11340981 -2.83764648 19.11352539 C-3.81249496 19.115746 -4.78734344 19.11796661 -5.79173279 19.12025452 C-8 19 -8 19 -9 18 C-9.07258946 15.81360547 -9.08373783 13.62499611 -9.0625 11.4375 C-9.05347656 10.23996094 -9.04445313 9.04242188 -9.03515625 7.80859375 C-9.02355469 6.88175781 -9.01195313 5.95492188 -9 5 C-2.25 3.875 -2.25 3.875 0 5 C0 3.35 0 1.7 0 0 Z " fill="#0E1820" transform="translate(35,21)"/>
<path d="M0 0 C1.48306641 0.02126953 1.48306641 0.02126953 2.99609375 0.04296875 C3.98738281 0.04941406 4.97867188 0.05585937 6 0.0625 C8.43359375 0.23046875 8.43359375 0.23046875 9.43359375 1.23046875 C9.52117378 3.23011857 9.54055951 5.23282985 9.53125 7.234375 C9.52802734 8.44931641 9.52480469 9.66425781 9.52148438 10.91601562 C9.51310547 12.19541016 9.50472656 13.47480469 9.49609375 14.79296875 C9.49158203 16.07623047 9.48707031 17.35949219 9.48242188 18.68164062 C9.4705892 21.86462897 9.45410443 25.04752637 9.43359375 28.23046875 C8.6653125 27.40289062 7.89703125 26.5753125 7.10546875 25.72265625 C6.22375 24.90023437 5.34203125 24.0778125 4.43359375 23.23046875 C1.0846211 23.37002188 1.0846211 23.37002188 -1.56640625 25.23046875 C-1.80168398 27.58034137 -1.98027042 29.93602914 -2.12890625 32.29296875 C-2.21269531 33.58332031 -2.29648438 34.87367187 -2.3828125 36.203125 C-2.44339844 37.20214844 -2.50398438 38.20117188 -2.56640625 39.23046875 C-5.00928012 35.56615794 -4.85578889 32.80694442 -4.83203125 28.5703125 C-4.8339447 27.82463516 -4.83585815 27.07895782 -4.83782959 26.3106842 C-4.83918927 24.73633486 -4.83550798 23.16197422 -4.82714844 21.58764648 C-4.81643041 19.17341054 -4.82705843 16.75991615 -4.83984375 14.34570312 C-4.83852241 12.8164046 -4.83596055 11.28710654 -4.83203125 9.7578125 C-4.83607971 9.03383774 -4.84012817 8.30986298 -4.84429932 7.56394958 C-4.77725075 0.4290073 -4.77725075 0.4290073 0 0 Z " fill="#C6D4DB" transform="translate(73.56640625,47.76953125)"/>
<path d="M0 0 C0.33 0 0.66 0 1 0 C1.33 11.22 1.66 22.44 2 34 C2.33 30.37 2.66 26.74 3 23 C3.99 22.01 4.98 21.02 6 20 C10.11801218 20.20590061 10.97051802 20.97051802 14 24 C14.33 16.08 14.66 8.16 15 0 C15.33 0 15.66 0 16 0 C16.09882689 5.35679728 16.17144782 10.71306485 16.21972656 16.07055664 C16.23985059 17.8932418 16.26715296 19.71586234 16.30175781 21.53833008 C16.35024268 24.15722588 16.37296009 26.77526879 16.390625 29.39453125 C16.41127014 30.21025101 16.43191528 31.02597076 16.45318604 31.8664093 C16.45542114 37.49302755 16.45542114 37.49302755 14.19042969 40.0144043 C10.09432713 41.85746783 6.4617107 41.53513432 2.30786133 40.0144043 C0 38 0 38 -0.56762695 34.17114258 C-0.56683624 32.57871934 -0.53863458 30.98615838 -0.48828125 29.39453125 C-0.48120651 28.55532639 -0.47413177 27.71612152 -0.46684265 26.85148621 C-0.43885167 24.17091741 -0.37610801 21.49243733 -0.3125 18.8125 C-0.28742305 16.99547288 -0.26460882 15.17841301 -0.24414062 13.36132812 C-0.18900999 8.90674722 -0.10270783 4.45372771 0 0 Z M8 25 C8 27.97 8 30.94 8 34 C8.33 34 8.66 34 9 34 C9 31.03 9 28.06 9 25 C8.67 25 8.34 25 8 25 Z " fill="#455762" transform="translate(68,50)"/>
<path d="M0 0 C0.99 0.33 1.98 0.66 3 1 C4.77869152 1.09300246 6.56067622 1.12792053 8.34179688 1.12939453 C9.43302856 1.13254669 10.52426025 1.13569885 11.64855957 1.13894653 C12.82672241 1.1369223 14.00488525 1.13489807 15.21875 1.1328125 C16.42817261 1.13376923 17.63759521 1.13472595 18.88366699 1.13571167 C21.44246472 1.13639262 24.00126418 1.13454426 26.56005859 1.13037109 C30.48408883 1.12502169 34.40800459 1.13031901 38.33203125 1.13671875 C40.81510442 1.13605795 43.29817752 1.13477676 45.78125 1.1328125 C46.95941284 1.13483673 48.13757568 1.13686096 49.35144043 1.13894653 C50.98828796 1.13421829 50.98828796 1.13421829 52.65820312 1.12939453 C53.61956177 1.12859894 54.58092041 1.12780334 55.57141113 1.12698364 C58.14180913 1.10065264 58.14180913 1.10065264 61 0 C60.125 4.875 60.125 4.875 59 6 C57.23099965 6.10416793 55.45784292 6.1385382 53.68579102 6.14526367 C52.55113907 6.15164352 51.41648712 6.15802338 50.24745178 6.16459656 C49.01208176 6.16570938 47.77671173 6.1668222 46.50390625 6.16796875 C45.24488998 6.17129715 43.98587372 6.17462555 42.68870544 6.17805481 C40.01956665 6.18312943 37.35052959 6.18589414 34.68139648 6.18530273 C31.25687285 6.1852011 27.83255649 6.19885201 24.40808201 6.21607494 C21.14836436 6.22985116 17.88864908 6.22928326 14.62890625 6.23046875 C13.39556046 6.23765427 12.16221466 6.24483978 10.89149475 6.25224304 C9.18478859 6.2476281 9.18478859 6.2476281 7.44360352 6.24291992 C5.93589134 6.24505745 5.93589134 6.24505745 4.39772034 6.24723816 C2 6 2 6 0 4 C0 2.68 0 1.36 0 0 Z " fill="#B2BFC7" transform="translate(24,38)"/>
<path d="M0 0 C0.33 0 0.66 0 1 0 C1 3.3 1 6.6 1 10 C1.99652588 9.83701416 2.99305176 9.67402832 4.01977539 9.50610352 C7.92098306 8.95102603 11.74058905 8.88650839 15.68359375 8.90234375 C16.38396255 8.9037587 17.08433136 8.90517365 17.80592346 8.90663147 C20.01649466 8.91217523 22.22696004 8.92471674 24.4375 8.9375 C25.94726415 8.94252229 27.45702991 8.94708391 28.96679688 8.95117188 C32.64456493 8.96212613 36.32227212 8.9793511 40 9 C39.505 6.525 39.505 6.525 39 4 C39.99 4 40.98 4 42 4 C42 7.96 42 11.92 42 16 C41.01 16 40.02 16 39 16 C39 14.68 39 13.36 39 12 C37.02 12 35.04 12 33 12 C33.495 13.98 33.495 13.98 34 16 C32.68 16 31.36 16 30 16 C30.33 14.68 30.66 13.36 31 12 C29.02 12 27.04 12 25 12 C25.495 13.98 25.495 13.98 26 16 C25.01 16 24.02 16 23 16 C23.33 14.68 23.66 13.36 24 12 C22.02 12 20.04 12 18 12 C18.33 13.32 18.66 14.64 19 16 C18.01 16.33 17.02 16.66 16 17 C16 15.35 16 13.7 16 12 C13.36 12 10.72 12 8 12 C8 13.65 8 15.3 8 17 C7.01 16.67 6.02 16.34 5 16 C5.33 14.68 5.66 13.36 6 12 C4.02 12 2.04 12 0 12 C0.33 13.32 0.66 14.64 1 16 C0.01 16 -0.98 16 -2 16 C-2 14.68 -2 13.36 -2 12 C-3.98 12 -5.96 12 -8 12 C-7.67 13.32 -7.34 14.64 -7 16 C-7.99 16 -8.98 16 -10 16 C-10 14.02 -10 12.04 -10 10 C-6.7 9.67 -3.4 9.34 0 9 C0 6.03 0 3.06 0 0 Z " fill="#B4BEC4" transform="translate(39,21)"/>
<path d="M0 0 C1.28825684 0.01047363 2.57651367 0.02094727 3.90380859 0.03173828 C4.93167984 0.03598312 4.93167984 0.03598312 5.98031616 0.04031372 C8.17113636 0.05151797 10.36154925 0.07662219 12.55224609 0.10205078 C14.03661519 0.1120803 15.5209907 0.1212062 17.00537109 0.12939453 C20.6461287 0.15145784 24.28664766 0.18598903 27.92724609 0.22705078 C28.42224609 1.71205078 28.42224609 1.71205078 28.92724609 3.22705078 C27.92724609 4.22705078 27.92724609 4.22705078 24.42724609 4.66455078 C22.69474609 4.94298828 22.69474609 4.94298828 20.92724609 5.22705078 C20.59724609 5.88705078 20.26724609 6.54705078 19.92724609 7.22705078 C18.07958984 7.85986328 18.07958984 7.85986328 15.86474609 8.35205078 C14.76453125 8.60341797 14.76453125 8.60341797 13.64208984 8.85986328 C13.07619141 8.98103516 12.51029297 9.10220703 11.92724609 9.22705078 C11.92724609 8.56705078 11.92724609 7.90705078 11.92724609 7.22705078 C11.36134766 7.11748047 10.79544922 7.00791016 10.21240234 6.89501953 C9.47892578 6.73646484 8.74544922 6.57791016 7.98974609 6.41455078 C7.25884766 6.26373047 6.52794922 6.11291016 5.77490234 5.95751953 C5.16517578 5.71646484 4.55544922 5.47541016 3.92724609 5.22705078 C3.59724609 4.23705078 3.26724609 3.24705078 2.92724609 2.22705078 C1.60724609 2.22705078 0.28724609 2.22705078 -1.07275391 2.22705078 C-1.06115234 3.00951172 -1.04955078 3.79197266 -1.03759766 4.59814453 C-1.02857422 5.61005859 -1.01955078 6.62197266 -1.01025391 7.66455078 C-0.99865234 8.67388672 -0.98705078 9.68322266 -0.97509766 10.72314453 C-1.07275391 13.22705078 -1.07275391 13.22705078 -2.07275391 14.22705078 C-4.07233754 14.26785861 -6.07320645 14.26959434 -8.07275391 14.22705078 C-8.07275391 13.89705078 -8.07275391 13.56705078 -8.07275391 13.22705078 C-6.42275391 13.22705078 -4.77275391 13.22705078 -3.07275391 13.22705078 C-3.40275391 11.90705078 -3.73275391 10.58705078 -4.07275391 9.22705078 C-6.71275391 9.22705078 -9.35275391 9.22705078 -12.07275391 9.22705078 C-11.74275391 8.56705078 -11.41275391 7.90705078 -11.07275391 7.22705078 C-9.09275391 7.22705078 -7.11275391 7.22705078 -5.07275391 7.22705078 C-5.11400391 6.44330078 -5.15525391 5.65955078 -5.19775391 4.85205078 C-5.00772411 0.86142504 -3.89361853 0.2877058 0 0 Z " fill="#394953" transform="translate(39.07275390625,16.77294921875)"/>
<path d="M0 0 C1.0310939 -0.00622879 2.06218781 -0.01245758 3.12452698 -0.01887512 C4.78559731 -0.0050605 4.78559731 -0.0050605 6.48022461 0.0090332 C7.62164413 0.0085347 8.76306366 0.00803619 9.93907166 0.00752258 C12.35067487 0.00986211 14.76228056 0.01958345 17.17382812 0.03613281 C20.87188459 0.05974623 24.56922119 0.05668994 28.26733398 0.05004883 C30.60913517 0.05562486 32.95093331 0.06273426 35.29272461 0.0715332 C36.40212906 0.0706218 37.51153351 0.06971039 38.65455627 0.06877136 C39.68249802 0.07830338 40.71043976 0.08783539 41.76953125 0.09765625 C43.12710289 0.10456734 43.12710289 0.10456734 44.51210022 0.11161804 C46.82006836 0.37231445 46.82006836 0.37231445 49.82006836 2.37231445 C49.82006836 3.03231445 49.82006836 3.69231445 49.82006836 4.37231445 C49.15021408 4.36565262 48.4803598 4.35899078 47.79020691 4.35212708 C40.83137807 4.28586305 33.87263854 4.24055097 26.91357422 4.20751953 C24.31490439 4.19241382 21.71626013 4.17192812 19.11767578 4.14599609 C15.38689878 4.10969202 11.65645823 4.09260587 7.92553711 4.0793457 C6.75983688 4.06386185 5.59413666 4.04837799 4.39311218 4.03242493 C3.31221817 4.03219833 2.23132416 4.03197174 1.11767578 4.03173828 C-0.31128777 4.02174553 -0.31128777 4.02174553 -1.76911926 4.0115509 C-4.6332665 4.44015328 -5.39332824 5.15792238 -7.17993164 7.37231445 C-7.83993164 8.03231445 -8.49993164 8.69231445 -9.17993164 9.37231445 C-9.42993164 6.55981445 -9.42993164 6.55981445 -9.17993164 3.37231445 C-6.24256072 0.46260084 -4.05928956 -0.0028206 0 0 Z " fill="#6E7B86" transform="translate(33.179931640625,12.627685546875)"/>
<path d="M0 0 C0.99 0 1.98 0 3 0 C3 13.2 3 26.4 3 40 C2.67 40 2.34 40 2 40 C1.67 37.36 1.34 34.72 1 32 C0.34 35.63 -0.32 39.26 -1 43 C-1.33 43 -1.66 43 -2 43 C-2.04934656 37.19760386 -2.08569402 31.39532919 -2.10986328 25.59277344 C-2.11993627 23.61781691 -2.13359521 21.64287534 -2.15087891 19.66796875 C-2.17507039 16.83329582 -2.18646991 13.99881962 -2.1953125 11.1640625 C-2.20563507 10.27756012 -2.21595764 9.39105774 -2.22659302 8.47769165 C-2.2269907 6.31714048 -2.12272534 4.15706282 -2 2 C-1.34 1.34 -0.68 0.68 0 0 Z " fill="#ECF0F5" transform="translate(91,47)"/>
<path d="M0 0 C7.58038432 -0.12690954 15.16049408 -0.21439808 22.74169922 -0.2746582 C25.31992837 -0.2997824 27.89808643 -0.33388759 30.47607422 -0.37719727 C34.18474886 -0.43793664 37.89248075 -0.46623197 41.6015625 -0.48828125 C42.75177887 -0.51408768 43.90199524 -0.5398941 45.08706665 -0.56648254 C54.03507036 -0.56960955 54.03507036 -0.56960955 57.73828125 2.14453125 C60.39269921 5.49579123 60.71081343 6.95081217 60.5859375 11.17578125 C60.56660156 12.33271484 60.54726562 13.48964844 60.52734375 14.68164062 C60.47707031 15.87982422 60.42679688 17.07800781 60.375 18.3125 C60.33439453 20.1387793 60.33439453 20.1387793 60.29296875 22.00195312 C60.22235341 25.00310498 60.12376972 28.00064712 60 31 C59.34 31 58.68 31 58 31 C57.98541748 30.2886792 57.97083496 29.5773584 57.95581055 28.84448242 C57.88138994 25.62493668 57.78471 22.40643482 57.6875 19.1875 C57.65366211 17.50817383 57.65366211 17.50817383 57.61914062 15.79492188 C57.58369141 14.72177734 57.54824219 13.64863281 57.51171875 12.54296875 C57.48553467 11.55321045 57.45935059 10.56345215 57.43237305 9.54370117 C56.93823627 6.63663677 56.3097569 5.76320293 54 4 C51.49065701 2.7453285 49.71622645 2.84126442 46.90771484 2.79467773 C45.84676605 2.77473251 44.78581726 2.75478729 43.69271851 2.73423767 C42.54373077 2.71752518 41.39474304 2.70081268 40.2109375 2.68359375 C39.03737701 2.66281265 37.86381653 2.64203156 36.6546936 2.62062073 C32.89485696 2.55508017 29.13494878 2.49621924 25.375 2.4375 C22.83072168 2.39431908 20.28645067 2.35070493 17.7421875 2.30664062 C11.49486793 2.19939418 5.24747674 2.0976362 -1 2 C-0.67 1.34 -0.34 0.68 0 0 Z " fill="#0A1319" transform="translate(28,11)"/>
<path d="M0 0 C0.33 0 0.66 0 1 0 C1 8.58 1 17.16 1 26 C-2 26 -2 26 -4 25 C-4 26.32 -4 27.64 -4 29 C-3.01 29.33 -2.02 29.66 -1 30 C-1.33 43.86 -1.66 57.72 -2 72 C-2.99 71.67 -3.98 71.34 -5 71 C-5 55.49 -5 39.98 -5 24 C-3.68 24 -2.36 24 -1 24 C-0.67 16.08 -0.34 8.16 0 0 Z " fill="#C0C7CC" transform="translate(20,18)"/>
<path d="M0 0 C0.9075 0.00257812 1.815 0.00515625 2.75 0.0078125 C4.11125 0.00394531 4.11125 0.00394531 5.5 0 C7.75 0.1328125 7.75 0.1328125 8.75 1.1328125 C8.87494616 2.75420687 8.92571624 4.38165372 8.9375 6.0078125 C8.95167969 6.89210938 8.96585938 7.77640625 8.98046875 8.6875 C8.75 11.1328125 8.75 11.1328125 6.75 14.1328125 C4.875 14.49609375 4.875 14.49609375 2.75 14.4453125 C2.04875 14.44144531 1.3475 14.43757813 0.625 14.43359375 C-1.25 14.1328125 -1.25 14.1328125 -3.25 12.1328125 C-3.48046875 9.56640625 -3.48046875 9.56640625 -3.4375 6.5703125 C-3.43105469 5.57902344 -3.42460938 4.58773437 -3.41796875 3.56640625 C-3.20006172 0.40928809 -3.15032131 0.18595647 0 0 Z " fill="#4B5C68" transform="translate(41.25,78.8671875)"/>
<path d="M0 0 C0.70125 0.00515625 1.4025 0.0103125 2.125 0.015625 C2.82625 0.01046875 3.5275 0.0053125 4.25 0 C6.125 0.265625 6.125 0.265625 8.125 2.265625 C8.390625 4.578125 8.390625 4.578125 8.375 7.265625 C8.38015625 8.1525 8.3853125 9.039375 8.390625 9.953125 C8.125 12.265625 8.125 12.265625 6.125 14.265625 C3.99609375 14.49609375 3.99609375 14.49609375 1.5625 14.453125 C0.35400391 14.44345703 0.35400391 14.44345703 -0.87890625 14.43359375 C-2.875 14.265625 -2.875 14.265625 -3.875 13.265625 C-3.99987758 11.45635219 -4.05070846 9.64166393 -4.0625 7.828125 C-4.07667969 6.83941406 -4.09085938 5.85070312 -4.10546875 4.83203125 C-3.8290296 1.75371727 -3.19436469 0.452535 0 0 Z " fill="#A1B0B8" transform="translate(27.875,61.734375)"/>
<path d="M0 0 C0.33 0 0.66 0 1 0 C1.33 11.88 1.66 23.76 2 36 C2.66 32.7 3.32 29.4 4 26 C4.33 26 4.66 26 5 26 C6.03230986 38.54065311 6.03230986 38.54065311 2.3125 43.6875 C-0.1387298 46.45313933 -2.32293725 48.13480876 -6 49 C-6 48.34 -6 47.68 -6 47 C-24.15 47 -42.3 47 -61 47 C-61 46.67 -61 46.34 -61 46 C-60.30731018 45.99635437 -59.61462036 45.99270874 -58.90093994 45.98895264 C-51.69826579 45.94717704 -44.4962318 45.87786568 -37.29394531 45.79248047 C-34.6051281 45.76201804 -31.91649902 45.74135434 -29.22753906 45.72900391 C-25.36479803 45.70762342 -21.50306552 45.66099493 -17.640625 45.609375 C-16.4363385 45.60814636 -15.232052 45.60691772 -13.99127197 45.60565186 C-12.30998199 45.57607391 -12.30998199 45.57607391 -10.59472656 45.54589844 C-9.60877502 45.53701599 -8.62282349 45.52813354 -7.60699463 45.51898193 C-4.23996459 44.84869756 -3.05208585 43.71608783 -1 41 C-0.39564611 38.96071236 -0.39564611 38.96071236 -0.45410156 36.78222656 C-0.43438293 35.96167786 -0.41466431 35.14112915 -0.39434814 34.29571533 C-0.39250519 32.98144562 -0.39250519 32.98144562 -0.390625 31.640625 C-0.37408875 30.73624695 -0.35755249 29.8318689 -0.34051514 28.90008545 C-0.29200021 26.01665479 -0.27065656 23.13375166 -0.25 20.25 C-0.22184322 18.29294216 -0.19191621 16.33590893 -0.16015625 14.37890625 C-0.08624031 9.58598092 -0.03668702 4.79334904 0 0 Z " fill="#A0A9AF" transform="translate(88,50)"/>
<path d="M0 0 C0.70125 0.00515625 1.4025 0.0103125 2.125 0.015625 C2.82625 0.01046875 3.5275 0.0053125 4.25 0 C6.125 0.265625 6.125 0.265625 8.125 2.265625 C8.35546875 4.83203125 8.35546875 4.83203125 8.3125 7.828125 C8.30283203 9.31505859 8.30283203 9.31505859 8.29296875 10.83203125 C8.125 13.265625 8.125 13.265625 7.125 14.265625 C5.12890625 14.43359375 5.12890625 14.43359375 2.6875 14.453125 C1.48287109 14.47439453 1.48287109 14.47439453 0.25390625 14.49609375 C-1.875 14.265625 -1.875 14.265625 -3.875 12.265625 C-4.140625 9.953125 -4.140625 9.953125 -4.125 7.265625 C-4.13015625 6.37875 -4.1353125 5.491875 -4.140625 4.578125 C-3.80306577 1.63937407 -3.01925908 0.42772837 0 0 Z " fill="#7A8C97" transform="translate(55.875,61.734375)"/>
<path d="M0 0 C0.70125 0.00515625 1.4025 0.0103125 2.125 0.015625 C2.82625 0.01046875 3.5275 0.0053125 4.25 0 C6.125 0.265625 6.125 0.265625 8.125 2.265625 C8.390625 4.578125 8.390625 4.578125 8.375 7.265625 C8.38015625 8.1525 8.3853125 9.039375 8.390625 9.953125 C8.125 12.265625 8.125 12.265625 6.125 14.265625 C4.25 14.53125 4.25 14.53125 2.125 14.515625 C1.42375 14.52078125 0.7225 14.5259375 0 14.53125 C-1.875 14.265625 -1.875 14.265625 -3.875 12.265625 C-4.140625 9.953125 -4.140625 9.953125 -4.125 7.265625 C-4.13015625 6.37875 -4.1353125 5.491875 -4.140625 4.578125 C-3.80306577 1.63937407 -3.01925908 0.42772837 0 0 Z " fill="#7F909A" transform="translate(41.875,61.734375)"/>
<path d="M0 0 C1.20849609 -0.00386719 1.20849609 -0.00386719 2.44140625 -0.0078125 C4.4375 0.125 4.4375 0.125 5.4375 1.125 C5.56237758 2.93427281 5.61320846 4.74896107 5.625 6.5625 C5.63917969 7.55121094 5.65335938 8.53992188 5.66796875 9.55859375 C5.4375 12.125 5.4375 12.125 3.4375 14.125 C1.5625 14.42578125 1.5625 14.42578125 -0.5625 14.4375 C-1.26375 14.45425781 -1.965 14.47101563 -2.6875 14.48828125 C-3.30625 14.36839844 -3.925 14.24851562 -4.5625 14.125 C-6.77164 10.81129 -6.78731553 9.7803979 -6.6875 5.9375 C-6.66945312 5.03644531 -6.65140625 4.13539062 -6.6328125 3.20703125 C-6.60960937 2.51996094 -6.58640625 1.83289063 -6.5625 1.125 C-4.1828388 -0.0648306 -2.64764265 -0.00849966 0 0 Z M-2.5625 6.125 C-2.5625 6.455 -2.5625 6.785 -2.5625 7.125 C-0.9125 7.125 0.7375 7.125 2.4375 7.125 C2.4375 6.795 2.4375 6.465 2.4375 6.125 C0.7875 6.125 -0.8625 6.125 -2.5625 6.125 Z " fill="#4A5C68" transform="translate(58.5625,78.875)"/>
<path d="M0 0 C1.32 0 2.64 0 4 0 C4.33 0.66 4.66 1.32 5 2 C6.89533342 2.46523063 6.89533342 2.46523063 9.0625 2.625 C10.361875 2.74875 11.66125 2.8725 13 3 C12.67 3.66 12.34 4.32 12 5 C9.67284 5.37400786 7.33882138 5.70764733 5 6 C3.74826221 7.03033389 3.74826221 7.03033389 3.8671875 9.25 C3.86976562 10.1575 3.87234375 11.065 3.875 12 C3.87242188 12.9075 3.86984375 13.815 3.8671875 14.75 C3.74826221 16.96966611 3.74826221 16.96966611 5 18 C6.34747084 18.23075082 7.70377565 18.41153063 9.0625 18.5625 C10.361875 18.706875 11.66125 18.85125 13 19 C13 19.99 13 20.98 13 22 C8.05 22.495 8.05 22.495 3 23 C2.67 25.64 2.34 28.28 2 31 C1.67 31 1.34 31 1 31 C0.77213542 28.94921875 0.54427083 26.8984375 0.31640625 24.84765625 C0.18113386 22.98859771 0.18113386 22.98859771 -1 22 C-2.34747084 21.76924918 -3.70377565 21.58846937 -5.0625 21.4375 C-6.361875 21.293125 -7.66125 21.14875 -9 21 C-9 20.67 -9 20.34 -9 20 C-6.36 20 -3.72 20 -1 20 C0.00496852 16.98509443 0.10335303 14.95818308 0.0625 11.8125 C0.05347656 10.91144531 0.04445313 10.01039062 0.03515625 9.08203125 C0.02355469 8.39496094 0.01195312 7.70789063 0 7 C-1.98 6.34 -3.96 5.68 -6 5 C-4 3 -4 3 -1 2 C-0.67 1.34 -0.34 0.68 0 0 Z " fill="#0E171E" transform="translate(49,57)"/>
<path d="M0 0 C0.8146875 0.00257812 1.629375 0.00515625 2.46875 0.0078125 C3.2834375 0.00523438 4.098125 0.00265625 4.9375 0 C6.96875 0.1328125 6.96875 0.1328125 7.96875 1.1328125 C8.04119053 3.15245449 8.05252188 5.17448374 8.03125 7.1953125 C8.02222656 8.30003906 8.01320313 9.40476562 8.00390625 10.54296875 C7.99230469 11.39761719 7.98070312 12.25226563 7.96875 13.1328125 C6.32300434 13.15969401 4.67713587 13.17915373 3.03125 13.1953125 C2.11472656 13.20691406 1.19820312 13.21851562 0.25390625 13.23046875 C-2.03125 13.1328125 -2.03125 13.1328125 -3.03125 12.1328125 C-3.12976171 10.30165367 -3.16097629 8.46661317 -3.15625 6.6328125 C-3.15882812 5.6325 -3.16140625 4.6321875 -3.1640625 3.6015625 C-2.98079257 0.19489798 -2.98079257 0.19489798 0 0 Z M1.96875 6.1328125 C1.96875 6.7928125 1.96875 7.4528125 1.96875 8.1328125 C2.62875 7.8028125 3.28875 7.4728125 3.96875 7.1328125 C3.30875 6.8028125 2.64875 6.4728125 1.96875 6.1328125 Z " fill="#4F616D" transform="translate(27.03125,78.8671875)"/>
<path d="M0 0 C0.33 0 0.66 0 1 0 C1.33 12.21 1.66 24.42 2 37 C4.97 37.33 7.94 37.66 11 38 C12.87824891 36.12175109 12.39102397 32.96064724 12.5625 30.4375 C12.64628906 29.23996094 12.73007813 28.04242188 12.81640625 26.80859375 C12.87699219 25.88175781 12.93757813 24.95492187 13 24 C13.33 24 13.66 24 14 24 C14.33 16.08 14.66 8.16 15 0 C15.33 0 15.66 0 16 0 C16.09882689 5.35679728 16.17144782 10.71306485 16.21972656 16.07055664 C16.23985059 17.8932418 16.26715296 19.71586234 16.30175781 21.53833008 C16.35024268 24.15722588 16.37296009 26.77526879 16.390625 29.39453125 C16.41127014 30.21025101 16.43191528 31.02597076 16.45318604 31.8664093 C16.45542114 37.49302755 16.45542114 37.49302755 14.19042969 40.0144043 C10.09432713 41.85746783 6.4617107 41.53513432 2.30786133 40.0144043 C0 38 0 38 -0.56762695 34.17114258 C-0.56683624 32.57871934 -0.53863458 30.98615838 -0.48828125 29.39453125 C-0.48120651 28.55532639 -0.47413177 27.71612152 -0.46684265 26.85148621 C-0.43885167 24.17091741 -0.37610801 21.49243733 -0.3125 18.8125 C-0.28742305 16.99547288 -0.26460882 15.17841301 -0.24414062 13.36132812 C-0.18900999 8.90674722 -0.10270783 4.45372771 0 0 Z " fill="#7A8993" transform="translate(68,50)"/>
<path d="M0 0 C1.20849609 -0.00386719 1.20849609 -0.00386719 2.44140625 -0.0078125 C4.4375 0.125 4.4375 0.125 5.4375 1.125 C5.60546875 3.12109375 5.60546875 3.12109375 5.625 5.5625 C5.63917969 6.36558594 5.65335938 7.16867188 5.66796875 7.99609375 C5.4375 10.125 5.4375 10.125 3.4375 12.125 C1.5625 12.42578125 1.5625 12.42578125 -0.5625 12.4375 C-1.26375 12.45425781 -1.965 12.47101562 -2.6875 12.48828125 C-3.30625 12.36839844 -3.925 12.24851562 -4.5625 12.125 C-7.24177341 8.10608988 -6.71851248 5.88338077 -6.5625 1.125 C-4.1828388 -0.0648306 -2.64764265 -0.00849966 0 0 Z " fill="#AFBDC6" transform="translate(58.5625,47.875)"/>
<path d="M0 0 C0.9075 0.00257812 1.815 0.00515625 2.75 0.0078125 C4.11125 0.00394531 4.11125 0.00394531 5.5 0 C7.75 0.1328125 7.75 0.1328125 8.75 1.1328125 C9.11090226 8.59145912 9.11090226 8.59145912 6.75 12.1328125 C4.875 12.49609375 4.875 12.49609375 2.75 12.4453125 C2.04875 12.44144531 1.3475 12.43757813 0.625 12.43359375 C-1.25 12.1328125 -1.25 12.1328125 -3.25 10.1328125 C-3.48046875 8.00390625 -3.48046875 8.00390625 -3.4375 5.5703125 C-3.43105469 4.76464844 -3.42460938 3.95898438 -3.41796875 3.12890625 C-3.17738872 0.26992033 -2.87242287 0.16955274 0 0 Z " fill="#BBC7CD" transform="translate(41.25,47.8671875)"/>
<path d="M0 0 C0.8146875 0.00257812 1.629375 0.00515625 2.46875 0.0078125 C3.2834375 0.00523438 4.098125 0.00265625 4.9375 0 C6.96875 0.1328125 6.96875 0.1328125 7.96875 1.1328125 C8.06698937 2.79710301 8.09848631 4.46563181 8.09375 6.1328125 C8.09632812 7.0403125 8.09890625 7.9478125 8.1015625 8.8828125 C7.96875 11.1328125 7.96875 11.1328125 6.96875 12.1328125 C5.44946962 12.20461214 3.92707518 12.21673257 2.40625 12.1953125 C1.57996094 12.18628906 0.75367188 12.17726563 -0.09765625 12.16796875 C-0.73574219 12.15636719 -1.37382812 12.14476562 -2.03125 12.1328125 C-3.2210806 9.7531513 -3.16474966 8.21795515 -3.15625 5.5703125 C-3.16011719 4.36181641 -3.16011719 4.36181641 -3.1640625 3.12890625 C-2.98250434 0.40019389 -2.72870107 0.17841507 0 0 Z " fill="#B2C2CB" transform="translate(27.03125,47.8671875)"/>
<path d="M0 0 C1.48306641 0.02126953 1.48306641 0.02126953 2.99609375 0.04296875 C3.98738281 0.04941406 4.97867188 0.05585937 6 0.0625 C8.43359375 0.23046875 8.43359375 0.23046875 9.43359375 1.23046875 C9.57474536 3.90105726 9.47606482 6.55479113 9.43359375 9.23046875 C9.10359375 8.57046875 8.77359375 7.91046875 8.43359375 7.23046875 C6.78359375 7.23046875 5.13359375 7.23046875 3.43359375 7.23046875 C3.43359375 6.24046875 3.43359375 5.25046875 3.43359375 4.23046875 C2.77359375 4.23046875 2.11359375 4.23046875 1.43359375 4.23046875 C1.43359375 5.22046875 1.43359375 6.21046875 1.43359375 7.23046875 C0.11359375 7.23046875 -1.20640625 7.23046875 -2.56640625 7.23046875 C-2.56640625 7.89046875 -2.56640625 8.55046875 -2.56640625 9.23046875 C-3.22640625 9.23046875 -3.88640625 9.23046875 -4.56640625 9.23046875 C-4.69140625 5.85546875 -4.69140625 5.85546875 -4.56640625 2.23046875 C-2.56640625 0.23046875 -2.56640625 0.23046875 0 0 Z " fill="#EBEEF0" transform="translate(73.56640625,47.76953125)"/>
<path d="M0 0 C1.67225729 0.30404678 3.33753959 0.64628502 5 1 C7.66309588 1.36987443 10.32983351 1.68320059 13 2 C13 2.99 13 3.98 13 5 C8.545 5.495 8.545 5.495 4 6 C3.67 9.3 3.34 12.6 3 16 C2.01 16 1.02 16 0 16 C-0.33 12.7 -0.66 9.4 -1 6 C-3.64 5.67 -6.28 5.34 -9 5 C-9 4.01 -9 3.02 -9 2 C-6.94921875 1.77213542 -4.8984375 1.54427083 -2.84765625 1.31640625 C-0.98859771 1.18113386 -0.98859771 1.18113386 0 0 Z " fill="#1B252C" transform="translate(35,74)"/>
<path d="M0 0 C7.75 0.75 7.75 0.75 10 3 C10.1953125 6.0390625 10.1953125 6.0390625 10.125 9.625 C10.10695313 10.81351563 10.08890625 12.00203125 10.0703125 13.2265625 C10.04710938 14.14179687 10.02390625 15.05703125 10 16 C9.34 16 8.68 16 8 16 C8 12.04 8 8.08 8 4 C6.68 4 5.36 4 4 4 C4 5.65 4 7.3 4 9 C2.35 9 0.7 9 -1 9 C-1.125 2.25 -1.125 2.25 0 0 Z " fill="#172128" transform="translate(74,21)"/>
<path d="M0 0 C2.29755922 3.44633882 2.23643976 4.71068391 2.1953125 8.76171875 C2.18886719 9.87998047 2.18242187 10.99824219 2.17578125 12.15039062 C2.15902344 13.31763672 2.14226563 14.48488281 2.125 15.6875 C2.11597656 16.86634766 2.10695313 18.04519531 2.09765625 19.25976562 C2.07406423 22.17338026 2.0411454 25.08658892 2 28 C1.01 27.67 0.02 27.34 -1 27 C-1.02892385 22.87501462 -1.04677267 18.75005515 -1.0625 14.625 C-1.07087891 13.449375 -1.07925781 12.27375 -1.08789062 11.0625 C-1.09111328 9.94101563 -1.09433594 8.81953125 -1.09765625 7.6640625 C-1.10289307 6.62717285 -1.10812988 5.5902832 -1.11352539 4.52197266 C-1 2 -1 2 0 0 Z " fill="#D0DAE1" transform="translate(16,62)"/>
<path d="M0 0 C0.33 0 0.66 0 1 0 C1 8.25 1 16.5 1 25 C0.01 25 -0.98 25 -2 25 C-1.67 23.68 -1.34 22.36 -1 21 C-2.98 20.67 -4.96 20.34 -7 20 C-6.01 19.67 -5.02 19.34 -4 19 C-4.185625 18.505 -4.37125 18.01 -4.5625 17.5 C-5.20139296 13.84918311 -4.54905291 10.66035276 -4 7 C-3.67 7 -3.34 7 -3 7 C-1.71428571 15.57142857 -1.71428571 15.57142857 -3 19 C-2.34 19 -1.68 19 -1 19 C-1.14069196 16.87465341 -1.28770921 14.74972471 -1.4375 12.625 C-1.51871094 11.44164062 -1.59992188 10.25828125 -1.68359375 9.0390625 C-1.81084936 6.08481099 -1.81084936 6.08481099 -3 4 C-1 1 -1 1 0 0 Z " fill="#35414A" transform="translate(85,18)"/>
<path d="M0 0 C0.8146875 0.00257812 1.629375 0.00515625 2.46875 0.0078125 C3.2834375 0.00523438 4.098125 0.00265625 4.9375 0 C6.96875 0.1328125 6.96875 0.1328125 7.96875 1.1328125 C8.00955783 3.13239614 8.01129356 5.13326504 7.96875 7.1328125 C4.66875 7.1328125 1.36875 7.1328125 -2.03125 7.1328125 C-2.36125 8.1228125 -2.69125 9.1128125 -3.03125 10.1328125 C-3.05814216 8.65374358 -3.07759621 7.17453767 -3.09375 5.6953125 C-3.10535156 4.87160156 -3.11695313 4.04789062 -3.12890625 3.19921875 C-2.99750338 0.41873396 -2.77471038 0.18142337 0 0 Z " fill="#637681" transform="translate(56.03125,78.8671875)"/>
<path d="M0 0 C0.33 0 0.66 0 1 0 C1.05395478 1.62463842 1.09277195 3.24978541 1.125 4.875 C1.14820313 5.77992187 1.17140625 6.68484375 1.1953125 7.6171875 C1 10 1 10 -1 12 C-3.12890625 12.23046875 -3.12890625 12.23046875 -5.5625 12.1875 C-6.77099609 12.17783203 -6.77099609 12.17783203 -8.00390625 12.16796875 C-10 12 -10 12 -11 11 C-11.04080783 9.00041636 -11.04254356 6.99954746 -11 5 C-9.68 4.67 -8.36 4.34 -7 4 C-7.66 3.34 -8.32 2.68 -9 2 C-6.69 2 -4.38 2 -2 2 C-2 3.32 -2 4.64 -2 6 C-2.66 6 -3.32 6 -4 6 C-4.33 6.66 -4.66 7.32 -5 8 C-5.99 8 -6.98 8 -8 8 C-8 8.66 -8 9.32 -8 10 C-5.36 9.67 -2.72 9.34 0 9 C0 6.03 0 3.06 0 0 Z " fill="#7F9099" transform="translate(35,64)"/>
<path d="M0 0 C2.57161458 0.03255208 5.14322917 0.06510417 7.71484375 0.09765625 C7.71484375 3.39765625 7.71484375 6.69765625 7.71484375 10.09765625 C7.38484375 10.09765625 7.05484375 10.09765625 6.71484375 10.09765625 C6.71484375 8.11765625 6.71484375 6.13765625 6.71484375 4.09765625 C5.72484375 4.09765625 4.73484375 4.09765625 3.71484375 4.09765625 C3.71484375 6.07765625 3.71484375 8.05765625 3.71484375 10.09765625 C3.05484375 10.09765625 2.39484375 10.09765625 1.71484375 10.09765625 C1.71484375 8.11765625 1.71484375 6.13765625 1.71484375 4.09765625 C0.72484375 4.59265625 0.72484375 4.59265625 -0.28515625 5.09765625 C-0.94070744 7.6249886 -0.94070744 7.6249886 -1.28515625 10.09765625 C-1.61515625 10.09765625 -1.94515625 10.09765625 -2.28515625 10.09765625 C-2.47927806 8.61934404 -2.66527756 7.13996309 -2.84765625 5.66015625 C-2.95207031 4.83644531 -3.05648437 4.01273437 -3.1640625 3.1640625 C-3.20402344 2.48214844 -3.24398437 1.80023438 -3.28515625 1.09765625 C-2.28515625 0.09765625 -2.28515625 0.09765625 0 0 Z " fill="#8999A2" transform="translate(41.28515625,78.90234375)"/>
<path d="M0 0 C0 0.66 0 1.32 0 2 C-18.48 2 -36.96 2 -56 2 C-55.67 1.34 -55.34 0.68 -55 0 C-47.48875121 -0.16796543 -39.97736272 -0.32790385 -32.46582031 -0.48217773 C-29.9088145 -0.53565186 -27.35184688 -0.59098526 -24.79492188 -0.64819336 C-21.12638589 -0.72995337 -17.45776593 -0.8050952 -13.7890625 -0.87890625 C-12.64007477 -0.90594131 -11.49108704 -0.93297638 -10.30728149 -0.96083069 C-9.2463327 -0.98092697 -8.18538391 -1.00102325 -7.09228516 -1.02172852 C-6.15518707 -1.04171402 -5.21808899 -1.06169952 -4.25259399 -1.08229065 C-2 -1 -2 -1 0 0 Z " fill="#697A86" transform="translate(83,15)"/>
<path d="M0 0 C0.33 0.66 0.66 1.32 1 2 C3.52733235 2.65555119 3.52733235 2.65555119 6 3 C5.34 4.65 4.68 6.3 4 8 C6.31 8 8.62 8 11 8 C10.67 8.99 10.34 9.98 10 11 C3.9453125 11.1953125 3.9453125 11.1953125 2 11 C0 9 0 9 -0.1953125 6.8359375 C-0.17210937 6.02382813 -0.14890625 5.21171875 -0.125 4.375 C-0.10695312 3.55773438 -0.08890625 2.74046875 -0.0703125 1.8984375 C-0.04710937 1.27195313 -0.02390625 0.64546875 0 0 Z " fill="#A9B7C0" transform="translate(38,49)"/>
<path d="M0 0 C8.58 0 17.16 0 26 0 C26 0.33 26 0.66 26 1 C23.36 1 20.72 1 18 1 C18 2.65 18 4.3 18 6 C17.01 5.67 16.02 5.34 15 5 C15.33 3.68 15.66 2.36 16 1 C14.02 1 12.04 1 10 1 C10.33 2.32 10.66 3.64 11 5 C10.01 5 9.02 5 8 5 C8 3.68 8 2.36 8 1 C6.02 1 4.04 1 2 1 C2.33 2.32 2.66 3.64 3 5 C2.01 5 1.02 5 0 5 C0 3.35 0 1.7 0 0 Z " fill="#83919A" transform="translate(29,32)"/>
<path d="M0 0 C0.33 0 0.66 0 1 0 C1 2.97 1 5.94 1 9 C0.236875 8.979375 -0.52625 8.95875 -1.3125 8.9375 C-4.10185786 8.87057159 -4.10185786 8.87057159 -7 10 C-7.66 11.32 -8.32 12.64 -9 14 C-9 11.03 -9 8.06 -9 5 C-2.25 3.875 -2.25 3.875 0 5 C0 3.35 0 1.7 0 0 Z " fill="#0B141A" transform="translate(35,21)"/>
<path d="M0 0 C0.78375 0.04125 1.5675 0.0825 2.375 0.125 C1.385 0.785 0.395 1.445 -0.625 2.125 C-0.9518108 4.75927698 -0.9518108 4.75927698 -0.75 7.6875 C-0.67932637 9.49910084 -0.63082013 11.31203048 -0.625 13.125 C-1.625 14.125 -1.625 14.125 -4.6875 14.1875 C-5.656875 14.166875 -6.62625 14.14625 -7.625 14.125 C-7.625 13.795 -7.625 13.465 -7.625 13.125 C-5.975 13.125 -4.325 13.125 -2.625 13.125 C-2.955 11.805 -3.285 10.485 -3.625 9.125 C-6.265 9.125 -8.905 9.125 -11.625 9.125 C-11.295 8.465 -10.965 7.805 -10.625 7.125 C-8.645 7.125 -6.665 7.125 -4.625 7.125 C-4.66625 6.34125 -4.7075 5.5575 -4.75 4.75 C-4.57462841 1.06719662 -3.68280338 0.17537159 0 0 Z " fill="#2C353B" transform="translate(38.625,16.875)"/>
<path d="M0 0 C0.33 0 0.66 0 1 0 C1.05395478 1.62463842 1.09277195 3.24978541 1.125 4.875 C1.14820313 5.77992187 1.17140625 6.68484375 1.1953125 7.6171875 C1 10 1 10 -1 12 C-2.875 12.30078125 -2.875 12.30078125 -5 12.3125 C-5.70125 12.32925781 -6.4025 12.34601563 -7.125 12.36328125 C-7.74375 12.24339844 -8.3625 12.12351562 -9 12 C-9.66 11.01 -10.32 10.02 -11 9 C-10.34 9 -9.68 9 -9 9 C-8.67 8.01 -8.34 7.02 -8 6 C-7.34 6 -6.68 6 -6 6 C-6 6.99 -6 7.98 -6 9 C-5.34 9 -4.68 9 -4 9 C-3.67 8.01 -3.34 7.02 -3 6 C-2.67 6.99 -2.34 7.98 -2 9 C-1.34 9 -0.68 9 0 9 C0 6.03 0 3.06 0 0 Z " fill="#596B77" transform="translate(49,64)"/>
<path d="M0 0 C0.33 0 0.66 0 1 0 C1 2.97 1 5.94 1 9 C2.32 9 3.64 9 5 9 C5 8.34 5 7.68 5 7 C6.65 7 8.3 7 10 7 C10 7.66 10 8.32 10 9 C10.66 9 11.32 9 12 9 C11.67 9.99 11.34 10.98 11 12 C9.54207116 12.05399736 8.08357288 12.09279177 6.625 12.125 C5.81289063 12.14820312 5.00078125 12.17140625 4.1640625 12.1953125 C2 12 2 12 0 10 C-0.1953125 7.6171875 -0.1953125 7.6171875 -0.125 4.875 C-0.10695312 3.96492188 -0.08890625 3.05484375 -0.0703125 2.1171875 C-0.04710937 1.41851562 -0.02390625 0.71984375 0 0 Z " fill="#596A74" transform="translate(52,64)"/>
<path d="M0 0 C0.33 0 0.66 0 1 0 C1.33 1.65 1.66 3.3 2 5 C2.99 4.67 3.98 4.34 5 4 C5 5.32 5 6.64 5 8 C6.98 8 8.96 8 11 8 C10.67 8.99 10.34 9.98 10 11 C7.03 11 4.06 11 1 11 C-0.20272819 8.59454362 -0.10071472 7.05003047 -0.0625 4.375 C-0.05347656 3.55773438 -0.04445313 2.74046875 -0.03515625 1.8984375 C-0.02355469 1.27195313 -0.01195313 0.64546875 0 0 Z " fill="#8798A2" transform="translate(24,49)"/>
<path d="M0 0 C0.33 0 0.66 0 1 0 C1 2.31 1 4.62 1 7 C2.65 6.67 4.3 6.34 6 6 C6 6.66 6 7.32 6 8 C7.98 8 9.96 8 12 8 C10 11 10 11 8.125 11.3984375 C7.073125 11.38683594 7.073125 11.38683594 6 11.375 C5.29875 11.38273437 4.5975 11.39046875 3.875 11.3984375 C2 11 2 11 0 8 C-0.25760279 5.30547479 -0.08900053 2.71451625 0 0 Z " fill="#768791" transform="translate(52,49)"/>
<path d="M0 0 C0.66 0 1.32 0 2 0 C2 0.99 2 1.98 2 3 C3.32 3 4.64 3 6 3 C5.67 3.99 5.34 4.98 5 6 C4.34 6 3.68 6 3 6 C2.67 6.99 2.34 7.98 2 9 C1.34 9 0.68 9 0 9 C0 8.01 0 7.02 0 6 C-1.32 5.67 -2.64 5.34 -4 5 C-4 4.34 -4 3.68 -4 3 C-2.68 3 -1.36 3 0 3 C0 2.01 0 1.02 0 0 Z " fill="#293238" transform="translate(75,52)"/>
<path d="M0 0 C2.97 0 5.94 0 9 0 C9.33 0.99 9.66 1.98 10 3 C8.02 3.33 6.04 3.66 4 4 C4 4.66 4 5.32 4 6 C3.01 6 2.02 6 1 6 C1 5.01 1 4.02 1 3 C0.34 3 -0.32 3 -1 3 C-0.67 2.01 -0.34 1.02 0 0 Z " fill="#B6C1C8" transform="translate(25,79)"/>
<path d="M0 0 C0.99 0 1.98 0 3 0 C3.02712153 1.916588 3.04645097 3.8332873 3.0625 5.75 C3.07410156 6.81734375 3.08570313 7.8846875 3.09765625 8.984375 C3.01510087 11.53368501 2.74617558 13.57933591 2 16 C1.34 16 0.68 16 0 16 C0 10.72 0 5.44 0 0 Z " fill="#334049" transform="translate(23,27)"/>
<path d="M0 0 C2.31 0 4.62 0 7 0 C7 2.31 7 4.62 7 7 C5.1875 6.875 5.1875 6.875 3 6 C1.25 2.9375 1.25 2.9375 0 0 Z " fill="#72838B" transform="translate(28,82)"/>
<path d="M0 0 C0 0.99 0 1.98 0 3 C-2 5 -2 5 -4.3828125 5.1953125 C-5.28773437 5.17210938 -6.19265625 5.14890625 -7.125 5.125 C-8.49011719 5.09792969 -8.49011719 5.09792969 -9.8828125 5.0703125 C-10.58148438 5.04710938 -11.28015625 5.02390625 -12 5 C-12.66 3.68 -13.32 2.36 -14 1 C-13.484375 1.165 -12.96875 1.33 -12.4375 1.5 C-9.21876586 2.16025316 -6.27722861 2.17875792 -3 2 C-2.01 1.34 -1.02 0.68 0 0 Z " fill="#42545F" transform="translate(83,88)"/>
<path d="M0 0 C0.33 0 0.66 0 1 0 C1 3.3 1 6.6 1 10 C-1.31 10 -3.62 10 -6 10 C-5.34 9.67 -4.68 9.34 -4 9 C-4 7.02 -4 5.04 -4 3 C-3.01 3 -2.02 3 -1 3 C-0.67 2.01 -0.34 1.02 0 0 Z " fill="#566874" transform="translate(49,80)"/>
<path d="M0 0 C0.671875 1.76953125 0.671875 1.76953125 1 4 C-0.109375 5.88671875 -0.109375 5.88671875 -1.75 7.6875 C-2.28109375 8.28949219 -2.8121875 8.89148438 -3.359375 9.51171875 C-5 11 -5 11 -8 12 C-8.66 11.34 -9.32 10.68 -10 10 C-9.0925 9.46375 -8.185 8.9275 -7.25 8.375 C-3.79561944 6.09936542 -2.08948315 3.53604841 0 0 Z " fill="#AABAC5" transform="translate(92,89)"/>
<path d="M0 0 C0.33 0 0.66 0 1 0 C1.05395478 1.62463842 1.09277195 3.24978541 1.125 4.875 C1.14820313 5.77992187 1.17140625 6.68484375 1.1953125 7.6171875 C1 10 1 10 -1 12 C-3.1640625 12.1953125 -3.1640625 12.1953125 -5.625 12.125 C-6.44226563 12.10695313 -7.25953125 12.08890625 -8.1015625 12.0703125 C-8.72804688 12.04710938 -9.35453125 12.02390625 -10 12 C-10.33 11.34 -10.66 10.68 -11 10 C-5.555 9.505 -5.555 9.505 0 9 C0 6.03 0 3.06 0 0 Z " fill="#495A64" transform="translate(35,64)"/>
<path d="M0 0 C2.64 0 5.28 0 8 0 C8 1.32 8 2.64 8 4 C5.36 4 2.72 4 0 4 C0 2.68 0 1.36 0 0 Z " fill="#17222B" transform="translate(47,33)"/>
<path d="M0 0 C0.75732422 0.00644531 1.51464844 0.01289063 2.29492188 0.01953125 C3.08060547 0.03628906 3.86628906 0.05304687 4.67578125 0.0703125 C5.47306641 0.07933594 6.27035156 0.08835937 7.09179688 0.09765625 C9.05742025 0.12119665 11.022889 0.15706703 12.98828125 0.1953125 C12.98828125 0.5253125 12.98828125 0.8553125 12.98828125 1.1953125 C11.86808594 1.19789062 10.74789062 1.20046875 9.59375 1.203125 C8.12105367 1.24064593 6.64839814 1.27979338 5.17578125 1.3203125 C4.06879883 1.31644531 4.06879883 1.31644531 2.93945312 1.3125 C0.48754129 1.3393039 0.48754129 1.3393039 -3.01171875 2.1953125 C-5.11430012 5.10449602 -5.11430012 5.10449602 -6.01171875 8.1953125 C-6.34171875 8.1953125 -6.67171875 8.1953125 -7.01171875 8.1953125 C-7.19921875 5.3203125 -7.19921875 5.3203125 -7.01171875 2.1953125 C-3.96490814 0.16410543 -3.41053551 -0.05128625 0 0 Z " fill="#7C8C97" transform="translate(31.01171875,13.8046875)"/>
<path d="M0 0 C2.97 0 5.94 0 9 0 C9.33 0.99 9.66 1.98 10 3 C6.37 3 2.74 3 -1 3 C-0.67 2.01 -0.34 1.02 0 0 Z " fill="#B5C2CA" transform="translate(54,79)"/>
<path d="M0 0 C0.598125 0.763125 1.19625 1.52625 1.8125 2.3125 C3.84004112 4.91335259 3.84004112 4.91335259 5.75 6.6875 C7 8 7 8 7 10 C0.90588235 7.85882353 0.90588235 7.85882353 -1 5 C-0.6875 2.3125 -0.6875 2.3125 0 0 Z " fill="#D5DFE5" transform="translate(20,89)"/>
<path d="M0 0 C3.3 0 6.6 0 10 0 C10 0.99 10 1.98 10 3 C6.7 3 3.4 3 0 3 C0 2.01 0 1.02 0 0 Z " fill="#DAE1E5" transform="translate(39,48)"/>
<path d="M0 0 C2.97 0 5.94 0 9 0 C9.33 0.99 9.66 1.98 10 3 C6.33694766 3.74926071 3.57644848 4.2380014 0 3 C0 2.01 0 1.02 0 0 Z " fill="#DDE4E7" transform="translate(25,48)"/>
<path d="M0 0 C2.97 0 5.94 0 9 0 C9 0.99 9 1.98 9 3 C5.7 3 2.4 3 -1 3 C-0.67 2.01 -0.34 1.02 0 0 Z " fill="#DBE2E7" transform="translate(54,48)"/>
<path d="M0 0 C2.64 0 5.28 0 8 0 C8.33 0.99 8.66 1.98 9 3 C5.7 3 2.4 3 -1 3 C-0.67 2.01 -0.34 1.02 0 0 Z " fill="#B5BEC4" transform="translate(54,62)"/>
<path d="M0 0 C2.64 0 5.28 0 8 0 C8.33 0.99 8.66 1.98 9 3 C5.7 3 2.4 3 -1 3 C-0.67 2.01 -0.34 1.02 0 0 Z " fill="#B6C0C5" transform="translate(40,62)"/>
<path d="M0 0 C0.99 0 1.98 0 3 0 C3 3.96 3 7.92 3 12 C2.67 10.68 2.34 9.36 2 8 C1.34 8 0.68 8 0 8 C0 5.36 0 2.72 0 0 Z " fill="#E6EBF1" transform="translate(91,34)"/>
<path d="M0 0 C1.98 0 3.96 0 6 0 C6 1.65 6 3.3 6 5 C3.36 5 0.72 5 -2 5 C-1.01 4.67 -0.02 4.34 1 4 C0.67 2.68 0.34 1.36 0 0 Z " fill="#1B272E" transform="translate(64,33)"/>
<path d="M0 0 C1.98 0 3.96 0 6 0 C6 1.65 6 3.3 6 5 C3.36 5 0.72 5 -2 5 C-1.01 4.67 -0.02 4.34 1 4 C0.67 2.68 0.34 1.36 0 0 Z " fill="#1E2931" transform="translate(39,33)"/>
<path d="M0 0 C2.52259061 1.97420135 2.9929808 2.96745642 3.6875 6.1875 C3.790625 7.115625 3.89375 8.04375 4 9 C2.35 9 0.7 9 -1 9 C-1.125 2.25 -1.125 2.25 0 0 Z " fill="#091219" transform="translate(74,21)"/>
<path d="M0 0 C1.23556641 0.01740234 1.23556641 0.01740234 2.49609375 0.03515625 C3.32238281 0.04417969 4.14867187 0.05320312 5 0.0625 C5.63808594 0.07410156 6.27617188 0.08570312 6.93359375 0.09765625 C6.60359375 0.75765625 6.27359375 1.41765625 5.93359375 2.09765625 C3.95359375 2.09765625 1.97359375 2.09765625 -0.06640625 2.09765625 C0.26359375 3.74765625 0.59359375 5.39765625 0.93359375 7.09765625 C-0.05640625 7.42765625 -1.04640625 7.75765625 -2.06640625 8.09765625 C-2.44703846 5.77157055 -2.7791057 3.43710361 -3.06640625 1.09765625 C-2.06640625 0.09765625 -2.06640625 0.09765625 0 0 Z " fill="#AFBBC2" transform="translate(57.06640625,29.90234375)"/>
<path d="M0 0 C2.91488977 2.6234008 4.88503898 5.71816394 7 9 C5.68 9 4.36 9 3 9 C0.43228397 5.69865082 0 4.27125508 0 0 Z " fill="#AFBCC3" transform="translate(16,89)"/>
<path d="M0 0 C0.33 0 0.66 0 1 0 C1.33 3.3 1.66 6.6 2 10 C4.97 10.33 7.94 10.66 11 11 C11 11.33 11 11.66 11 12 C7.37 12.33 3.74 12.66 0 13 C-1.06671952 9.79984144 -0.94845472 8.11455706 -0.5625 4.8125 C-0.46066406 3.91144531 -0.35882812 3.01039062 -0.25390625 2.08203125 C-0.17011719 1.39496094 -0.08632813 0.70789063 0 0 Z " fill="#1D2931" transform="translate(23,81)"/>
<path d="M0 0 C2.64 0 5.28 0 8 0 C8 0.99 8 1.98 8 3 C5.03 3 2.06 3 -1 3 C-0.67 2.01 -0.34 1.02 0 0 Z " fill="#B8C1C6" transform="translate(26,62)"/>
<path d="M0 0 C1.485 0.99 1.485 0.99 3 2 C3.39259107 6.23998354 3.32490278 9.36733941 1 13 C0.1276588 10.00519083 -0.10829766 7.36424089 -0.0625 4.25 C-0.05347656 3.45078125 -0.04445313 2.6515625 -0.03515625 1.828125 C-0.02355469 1.22484375 -0.01195313 0.6215625 0 0 Z " fill="#42525C" transform="translate(23,18)"/>
<path d="M0 0 C1.65 0 3.3 0 5 0 C5 4 5 4 3.625 5.75 C2 7 2 7 0 7 C0 4.69 0 2.38 0 0 Z " fill="#72848F" transform="translate(38,66)"/>
<path d="M0 0 C2.6875 1.4375 2.6875 1.4375 5 3 C4.67 4.32 4.34 5.64 4 7 C4 6.34 4 5.68 4 5 C2.35 5 0.7 5 -1 5 C-1 4.01 -1 3.02 -1 2 C-1.66 1.67 -2.32 1.34 -3 1 C-2.01 0.67 -1.02 0.34 0 0 Z " fill="#DBE3E7" transform="translate(78,50)"/>
<path d="M0 0 C-0.33 0.99 -0.66 1.98 -1 3 C-3.97 3 -6.94 3 -10 3 C-10.33 2.34 -10.66 1.68 -11 1 C-3.375 0 -3.375 0 0 0 Z " fill="#4A5C67" transform="translate(64,73)"/>
<path d="M0 0 C3.63 0 7.26 0 11 0 C10.67 0.99 10.34 1.98 10 3 C8.72125 3.061875 7.4425 3.12375 6.125 3.1875 C5.40570313 3.22230469 4.68640625 3.25710937 3.9453125 3.29296875 C3.30335937 3.19628906 2.66140625 3.09960938 2 3 C1.34 2.01 0.68 1.02 0 0 Z " fill="#697A86" transform="translate(38,57)"/>
<path d="M0 0 C3.3 0 6.6 0 10 0 C10 0.33 10 0.66 10 1 C7.36 1 4.72 1 2 1 C2 2.65 2 4.3 2 6 C1.01 5.67 0.02 5.34 -1 5 C-0.67 3.35 -0.34 1.7 0 0 Z " fill="#7A8890" transform="translate(45,32)"/>
<path d="M0 0 C1.98 0 3.96 0 6 0 C5.67 1.32 5.34 2.64 5 4 C3.35 4.33 1.7 4.66 0 5 C0 3.35 0 1.7 0 0 Z " fill="#19232B" transform="translate(57,33)"/>
<path d="M0 0 C0 0.33 0 0.66 0 1 C-1.98 1 -3.96 1 -6 1 C-5.67 2.32 -5.34 3.64 -5 5 C-5.99 5 -6.98 5 -8 5 C-7.67 3.68 -7.34 2.36 -7 1 C-8.98 1 -10.96 1 -13 1 C-13 0.67 -13 0.34 -13 0 C-8.37078475 -1.0161692 -4.65537393 -0.83796731 0 0 Z " fill="#84919A" transform="translate(70,32)"/>
<path d="M0 0 C0.66 0.33 1.32 0.66 2 1 C0.86280581 4.41158256 -0.04342944 5.11854601 -3 7 C-3.66 7 -4.32 7 -5 7 C-3.75023244 3.34683329 -3.32901247 2.21934164 0 0 Z " fill="#293036" transform="translate(26,11)"/>
<path d="M0 0 C2.475 0.495 2.475 0.495 5 1 C4.67 2.65 4.34 4.3 4 6 C2.68 5.34 1.36 4.68 0 4 C0 2.68 0 1.36 0 0 Z " fill="#455460" transform="translate(16,43)"/>
<path d="M0 0 C0.33 0 0.66 0 1 0 C1 2.64 1 5.28 1 8 C0.34 6.68 -0.32 5.36 -1 4 C-1.99 4.33 -2.98 4.66 -4 5 C-4 4.01 -4 3.02 -4 2 C-2.68 2 -1.36 2 0 2 C0 1.34 0 0.68 0 0 Z " fill="#A0ACB2" transform="translate(49,49)"/>
<path d="M0 0 C0 0.99 0 1.98 0 3 C-2.5 4.6875 -2.5 4.6875 -5 6 C-5 4.35 -5 2.7 -5 1 C-3 0 -3 0 0 0 Z " fill="#404F59" transform="translate(93,44)"/>
<path d="M0 0 C2.71435596 0.93305986 3.78043163 1.62673377 5.25 4.125 C5.4975 4.74375 5.745 5.3625 6 6 C3 6 3 6 1.4375 4.625 C0.963125 4.08875 0.48875 3.5525 0 3 C-0.66 2.34 -1.32 1.68 -2 1 C-1.34 0.67 -0.68 0.34 0 0 Z " fill="#1C242B" transform="translate(82,12)"/>
<path d="M0 0 C1.65 0 3.3 0 5 0 C5 0.66 5 1.32 5 2 C4.34 2 3.68 2 3 2 C3 2.99 3 3.98 3 5 C2.01 5 1.02 5 0 5 C0 3.35 0 1.7 0 0 Z " fill="#768995" transform="translate(24,69)"/>
<path d="M0 0 C0.33 0.99 0.66 1.98 1 3 C1.99 3 2.98 3 4 3 C3.67 4.32 3.34 5.64 3 7 C2.01 7 1.02 7 0 7 C0 4.69 0 2.38 0 0 Z " fill="#74858E" transform="translate(25,82)"/>
<path d="M0 0 C0.99 0 1.98 0 3 0 C3.33 1.65 3.66 3.3 4 5 C2.68 4.67 1.36 4.34 0 4 C0 2.68 0 1.36 0 0 Z " fill="#61737F" transform="translate(31,84)"/>
</svg>
